<svg width="1345" height="380" viewBox="0 0 1345 380" fill="none" xmlns="http://www.w3.org/2000/svg">
<g clip-path="url(#clip0)">
<path d="M195.77 109.35L86.4101 0C78.6517 2.09052 71.5796 6.18446 65.903 11.8711C60.2264 17.5578 56.145 24.6372 54.0682 32.3992C51.9915 40.1613 51.9924 48.3329 54.0708 56.0945C56.1493 63.856 60.2322 70.9346 65.9101 76.62L72.6401 83.37C54.9722 90.3151 39.3079 101.544 27.0565 116.045C14.8052 130.546 6.35097 147.866 2.45453 166.446C-1.44191 185.026 -0.658371 204.283 4.73466 222.484C10.1277 240.686 19.961 257.262 33.3501 270.72L142.53 379.9C150.195 377.839 157.193 373.823 162.839 368.244C168.485 362.666 172.585 355.716 174.738 348.077C176.89 340.437 177.021 332.369 175.118 324.663C173.214 316.958 169.342 309.879 163.88 304.12C163.74 303.98 163.61 303.84 163.46 303.7L162.63 302.86C162.49 302.72 162.35 302.58 162.19 302.44L156.3 296.53C173.959 289.604 189.62 278.397 201.874 263.919C214.129 249.44 222.594 232.143 226.508 213.583C230.422 195.023 229.662 175.78 224.296 157.586C218.931 139.392 209.129 122.817 195.77 109.35ZM146.86 222.35C140.464 228.741 132.319 233.095 123.452 234.864C114.585 236.633 105.393 235.737 97.0345 232.29C88.6758 228.842 81.525 222.997 76.4833 215.492C71.4417 207.986 68.7349 199.156 68.7043 190.114C68.6737 181.072 71.3206 172.224 76.3113 164.685C81.3021 157.145 88.4132 151.252 96.7483 147.748C105.083 144.244 114.269 143.286 123.148 144.994C132.027 146.703 140.201 151.002 146.64 157.35L147.08 157.79C155.574 166.396 160.319 178.013 160.278 190.105C160.237 202.197 155.413 213.782 146.86 222.33V222.35Z" fill="white"/>
<path d="M221.05 231.77C215.285 246.434 206.559 259.752 195.417 270.893C184.275 282.033 170.955 290.757 156.29 296.52L82.0901 222.32C90.6486 230.939 102.281 235.806 114.427 235.849C126.574 235.892 138.241 231.108 146.86 222.55C155.48 213.991 160.346 202.359 160.389 190.212C160.433 178.066 155.649 166.399 147.09 157.78L221.05 231.77Z" fill="url(#paint0_linear)"/>
<path d="M382.42 132.75C379.815 137.302 375.926 140.985 371.24 143.34C366.207 146.007 359.967 147.34 352.52 147.34H338.74V180.1H316.51V88.8701H352.51C359.79 88.8701 365.943 90.1268 370.97 92.6401C375.703 94.8712 379.649 98.483 382.29 103C384.861 107.651 386.161 112.897 386.06 118.21C386.125 123.29 384.871 128.3 382.42 132.75ZM360.32 126.75C362.4 124.75 363.44 121.933 363.44 118.3C363.44 114.66 362.44 111.85 360.32 109.85C358.2 107.85 355.08 106.85 350.83 106.85H338.74V129.73H350.83C355.083 129.703 358.247 128.693 360.32 126.7V126.75Z" fill="white"/>
<path d="M450.67 180.13L431.67 145.68H426.34V180.13H404.13V88.8701H441.44C448.633 88.8701 454.767 90.1268 459.84 92.6401C464.588 94.8676 468.552 98.479 471.21 103C473.745 107.445 475.053 112.484 475 117.6C475.078 123.427 473.279 129.124 469.87 133.85C466.43 138.617 461.373 142 454.7 144L475.76 180.14L450.67 180.13ZM426.36 130H440.14C444.213 130 447.27 129 449.31 127C451.35 125 452.367 122.183 452.36 118.55C452.438 117.049 452.208 115.548 451.683 114.139C451.159 112.731 450.351 111.444 449.31 110.36C447.27 108.36 444.213 107.36 440.14 107.36H426.36V130Z" fill="white"/>
<path d="M515 175.06C507.926 171.135 502.051 165.363 498 158.36C493.755 151.039 491.577 142.702 491.7 134.24C491.573 125.8 493.751 117.485 498 110.19C502.072 103.219 507.943 97.4715 515 93.5502C522.245 89.6256 530.355 87.5703 538.595 87.5703C546.835 87.5703 554.945 89.6256 562.19 93.5502C569.209 97.4556 575.023 103.211 579 110.19C583.175 117.51 585.309 125.815 585.18 134.24C585.322 142.689 583.188 151.021 579 158.36C574.99 165.36 569.147 171.134 562.1 175.06C554.866 178.985 546.765 181.04 538.535 181.04C530.305 181.04 522.205 178.985 514.97 175.06H515ZM556 153.48C560.38 148.627 562.57 142.213 562.57 134.24C562.57 126.267 560.38 119.833 556 114.94C551.627 110.127 545.8 107.72 538.52 107.72C531.24 107.72 525.367 110.103 520.9 114.87C516.533 119.643 514.347 126.1 514.34 134.24C514.333 142.38 516.52 148.817 520.9 153.55C525.28 158.363 531.153 160.767 538.52 160.76C545.887 160.753 551.713 158.327 556 153.48Z" fill="white"/>
<path d="M663.48 94.5901C670.478 98.2223 676.277 103.799 680.18 110.65C684.229 117.936 686.272 126.166 686.1 134.5C686.257 142.813 684.215 151.02 680.18 158.29C676.284 165.186 670.454 170.79 663.41 174.41C656.177 178.23 647.793 180.137 638.26 180.13H604.07V88.8701H638.26C647.88 88.8701 656.287 90.7768 663.48 94.5901ZM656.48 154C661.147 149.413 663.48 142.913 663.48 134.5C663.48 126.087 661.147 119.543 656.48 114.87C651.813 110.203 645.27 107.87 636.85 107.87H626.3V160.87H636.83C645.23 160.883 651.773 158.593 656.46 154H656.48Z" fill="white"/>
<path d="M726.92 88.8701V143.47C726.92 148.93 728.254 153.133 730.92 156.08C733.587 159.027 737.53 160.5 742.75 160.5C747.95 160.5 751.95 159.027 754.75 156.08C757.55 153.133 758.937 148.93 758.91 143.47V88.8701H781.14V143.34C781.14 151.487 779.407 158.377 775.94 164.01C772.605 169.522 767.741 173.948 761.94 176.75C755.837 179.651 749.147 181.106 742.39 181C735.713 181.119 729.1 179.673 723.08 176.78C717.421 173.978 712.735 169.539 709.63 164.04C706.33 158.36 704.684 151.447 704.69 143.3V88.8701H726.92Z" fill="white"/>
<path d="M805.31 110.26C809.079 103.327 814.733 97.6026 821.62 93.75C828.875 89.7317 837.058 87.6902 845.35 87.83C856.177 87.83 865.45 90.69 873.17 96.41C880.904 102.162 886.378 110.441 888.64 119.81H864.2C862.553 116.195 859.856 113.16 856.46 111.1C853.017 109.077 849.083 108.039 845.09 108.1C838.244 108.1 832.697 110.483 828.45 115.25C824.203 120.017 822.08 126.387 822.08 134.36C822.08 142.36 824.203 148.73 828.45 153.47C832.697 158.21 838.244 160.593 845.09 160.62C849.084 160.686 853.019 159.648 856.46 157.62C859.861 155.565 862.559 152.528 864.2 148.91H888.64C886.04 158.79 880.883 166.57 873.17 172.25C865.457 177.93 856.183 180.767 845.35 180.76C837.06 180.898 828.878 178.86 821.62 174.85C814.745 171.009 809.092 165.308 805.31 158.4C801.329 151.036 799.314 142.77 799.46 134.4C799.304 125.984 801.319 117.671 805.31 110.26Z" fill="white"/>
<path d="M974.43 88.8701V106.68H950.26V180.13H928V106.68H903.84V88.8701H974.43Z" fill="white"/>
<path d="M1015.77 161.93H1055V180.13H990.55V163.23L1029.55 107.07H990.55V88.8701H1055V105.77L1015.77 161.93Z" fill="white"/>
<path d="M1098.32 88.8701V180.13H1076.09V88.8701H1098.32Z" fill="white"/>
<path d="M1143.17 163H1172.29V180.16H1120.94V88.8701H1143.17V163Z" fill="white"/>
<path d="M1211.68 163H1240.8V180.16H1189.45V88.8701H1211.68V163Z" fill="white"/>
<path d="M1314.77 164H1280.71L1275.25 180.12H1252L1285 88.8604H1310.74L1343.74 180.12H1320.21L1314.77 164ZM1309.05 146.84L1297.74 113.43L1286.56 146.84H1309.05Z" fill="white"/>
<path d="M344.38 283H325.52L322.52 291.93H309.6L327.89 241.38H342.15L360.44 292H347.44L344.38 283ZM341.21 273.49L335 255L328.81 273.5L341.21 273.49Z" fill="white"/>
<path d="M478.73 253.27C480.807 249.432 483.927 246.26 487.73 244.12C491.749 241.9 496.279 240.772 500.87 240.85C506.389 240.699 511.804 242.368 516.28 245.6C520.568 248.797 523.598 253.398 524.84 258.6H511.35C510.436 256.597 508.941 254.915 507.06 253.77C505.151 252.653 502.972 252.082 500.76 252.12C499.025 252.065 497.299 252.395 495.706 253.087C494.114 253.778 492.694 254.814 491.55 256.12C489.183 258.707 488 262.207 488 266.62C488 271.034 489.177 274.564 491.53 277.21C492.674 278.516 494.094 279.552 495.686 280.244C497.279 280.935 499.005 281.265 500.74 281.21C502.953 281.245 505.132 280.671 507.04 279.55C508.923 278.412 510.418 276.732 511.33 274.73H524.86C523.616 279.91 520.585 284.485 516.3 287.65C511.814 290.859 506.404 292.517 500.89 292.37C496.299 292.445 491.768 291.314 487.75 289.09C483.953 286.96 480.834 283.802 478.75 279.98C476.621 275.858 475.51 271.285 475.51 266.645C475.51 262.005 476.621 257.433 478.75 253.31L478.73 253.27Z" fill="white"/>
<path d="M675.51 283H656.64L653.64 291.93H640.73L659 241.42H673.26L691.56 292H678.56L675.51 283ZM672.34 273.49L666.08 255L659.88 273.5L672.34 273.49Z" fill="white"/>
<path d="M841.61 244.59C845.486 246.6 848.698 249.687 850.86 253.48C853.014 257.545 854.14 262.075 854.14 266.675C854.14 271.275 853.014 275.806 850.86 279.87C848.702 283.69 845.472 286.794 841.57 288.8C837.26 290.995 832.476 292.094 827.64 292H808.71V241.42H827.64C832.487 241.309 837.286 242.398 841.61 244.59ZM837.72 277.49C840.307 274.95 841.603 271.35 841.61 266.69C841.617 262.03 840.32 258.407 837.72 255.82C835.133 253.234 831.51 251.937 826.85 251.93H821V281.31H826.83C831.503 281.31 835.133 280.037 837.72 277.49Z" fill="white"/>
<path d="M985 251.29V261.51H1001.49V271H985V282.1H1003.65V292H972.65V241.42H1003.65V251.29H985Z" fill="white"/>
<path d="M1180.44 241.42V292H1168.13V261.65L1156.82 292H1146.89L1135.51 261.61V292H1123.2V241.42H1137.74L1151.93 276.42L1165.93 241.42H1180.44Z" fill="white"/>
<path d="M1344.24 241.42L1326.74 275.26V292H1314.43V275.26L1296.94 241.42H1310.94L1320.74 262.59L1330.46 241.42H1344.24Z" fill="white"/>
</g>
<defs>
<linearGradient id="paint0_linear" x1="120.26" y1="265.11" x2="186.8" y2="198.57" gradientUnits="userSpaceOnUse">
<stop stop-color="#DDE4E8"/>
<stop offset="0.21" stop-color="#E8ECEF"/>
<stop offset="0.67" stop-color="#F9FAFB"/>
<stop offset="1" stop-color="white"/>
</linearGradient>
<clipPath id="clip0">
<rect width="1344.24" height="379.9" fill="white"/>
</clipPath>
</defs>
</svg>
