<svg width="24" height="24" viewBox="0 0 24 24" fill="none" xmlns="http://www.w3.org/2000/svg">
<path d="M20.6429 1.5H3.35714C2.73199 1.5 2.13244 1.73705 1.69039 2.15901C1.24834 2.58097 1 3.15326 1 3.75L1 20.25C1 20.8467 1.24834 21.419 1.69039 21.841C2.13244 22.263 2.73199 22.5 3.35714 22.5H10.0971V15.3605H7.00335V12H10.0971V9.43875C10.0971 6.52547 11.9141 4.91625 14.697 4.91625C16.0297 4.91625 17.4234 5.14313 17.4234 5.14313V8.0025H15.8878C14.3748 8.0025 13.9029 8.89875 13.9029 9.81797V12H17.2805L16.7403 15.3605H13.9029V22.5H20.6429C21.268 22.5 21.8676 22.263 22.3096 21.841C22.7517 21.419 23 20.8467 23 20.25V3.75C23 3.15326 22.7517 2.58097 22.3096 2.15901C21.8676 1.73705 21.268 1.5 20.6429 1.5Z" fill="white"/>
</svg>
