<svg width="80" height="80" viewBox="0 0 80 80" fill="none" xmlns="http://www.w3.org/2000/svg">
<path d="M16.5613 49.5887C18.1218 47.2481 19.4527 47.3858 21.1508 45.7335V17.5999H16.5613V49.5887Z" fill="#90CEF1"/>
<path d="M71.6354 17.5539V51.0573H42.1708C42.4921 52.2046 41.9872 53.4438 40.8398 53.9945V55.0042C42.4003 55.7386 42.6756 57.6662 41.666 58.8594H76.2249V17.5539H71.6354Z" fill="#90CEF1"/>
<path d="M42.2625 28.1098H45.9341V20.7666H29.8708V31.3225H42.2625V28.1098Z" fill="#169AD7"/>
<path d="M52.3595 31.3684L46.0718 30.68L46.7144 37.0135L48.4584 35.2695L51.4416 38.2527L53.6904 36.0038L50.7072 33.0207L52.3595 31.3684Z" fill="#90CEF1"/>
<path d="M74.9857 16.6818H72.5992V11.0367C72.5992 10.5319 72.1861 10.1188 71.6813 10.1188H21.105C20.6001 10.1188 20.1871 10.5319 20.1871 11.0367V16.6818H17.8005C16.699 16.6818 15.827 17.5538 15.827 18.5635V45.1826C15.827 46.3759 17.6628 46.3759 17.6628 45.1826V18.5635C17.6628 18.5635 17.7087 18.5176 17.8005 18.5176H20.1871V40.9144C20.1871 42.1076 21.977 42.1076 21.977 40.9144V11.9546H70.7634V50.0934H45.7047C44.5114 50.0934 44.5114 51.8833 45.7047 51.8833H71.6813C72.1861 51.8833 72.5992 51.4702 72.5992 50.9654V18.5176H74.9857C75.0775 18.5176 75.1234 18.5635 75.1234 18.5635V57.253C75.1234 57.5284 76.5003 57.4366 45.7047 57.4366C44.5114 57.4366 44.5114 59.2724 45.7047 59.2724H53.1397C53.1397 61.6589 53.002 63.3112 54.0576 65.6059H45.4752C44.2819 65.6059 44.2819 67.4417 45.4752 67.4417H62.2269V69.8741H42.8592C43.6853 68.3596 43.3182 66.5238 41.9413 65.4223C43.6394 64.0455 43.7312 61.4294 42.0331 59.9608C43.6394 58.4922 43.5476 55.922 41.8495 54.5452C44.4655 52.434 42.951 48.2117 39.6007 48.2117H30.8347C29.0907 48.2117 27.6679 49.6344 27.6679 51.3785C27.6679 52.2046 27.5303 53.4896 28.7235 54.5452C27.5762 55.5549 27.6221 56.7482 27.6679 57.7578C26.9336 59.5478 23.8587 60.0067 22.7113 60.0526C22.2064 60.0526 21.7934 60.4657 21.7934 60.9705C21.7934 61.4294 22.2064 61.8884 22.7113 61.8884C22.8949 61.8884 26.4747 61.7966 28.4482 59.8231C28.4941 59.869 28.5858 59.9608 28.6317 60.0067C28.081 60.5575 27.7138 61.3836 27.7138 62.2097C27.7138 63.0358 27.5762 64.3209 28.7694 65.3764C27.5762 66.432 27.7138 67.7171 27.7138 68.5432C27.7138 70.2872 29.1366 71.7099 30.8806 71.7099C31.9362 71.7099 38.4533 71.664 69.7996 71.664C70.9929 71.664 70.9929 69.8282 69.7996 69.8282H64.0627V66.4779C64.0627 65.9731 63.6497 65.56 63.1448 65.56H56.077C54.7919 63.357 54.9296 61.613 54.9296 59.2265H74.848C75.9954 59.2265 76.9592 58.3086 76.9592 57.2071V18.6094C76.9592 17.5538 76.0872 16.6818 74.9857 16.6818ZM39.6924 64.3667H30.8806C30.1463 64.3667 29.5496 63.7701 29.5496 63.0358V62.2097C29.5496 61.4753 30.1463 60.8787 30.8806 60.8787H39.6007C42.0331 60.8787 41.9872 64.3667 39.6924 64.3667ZM29.5037 57.712V56.9317C29.5037 56.1974 30.1004 55.6008 30.8347 55.6008H39.6465C40.6103 55.6008 41.3906 56.381 41.3906 57.3448C41.3906 58.3086 40.6103 59.0888 39.6465 59.0888H30.9265C30.0086 59.0429 29.5037 58.4004 29.5037 57.712ZM29.5037 51.3785C29.5037 50.6441 30.1004 50.0475 30.8347 50.0475H39.6465C40.6103 50.0475 41.3906 50.8277 41.3906 51.7915C41.3906 52.7553 40.6103 53.5355 39.6465 53.5355H30.8347C30.1004 53.5355 29.5037 52.9389 29.5037 52.2046V51.3785ZM29.5496 68.5891V67.8089C29.5496 67.0745 30.1463 66.4779 30.8806 66.4779H39.6924C41.7577 66.4779 42.079 69.4611 40.0596 69.92C39.7842 69.92 33.4966 69.8742 33.2212 69.9659H30.8347C30.1463 69.92 29.5496 69.3234 29.5496 68.5891Z" fill="#263357"/>
<path d="M22.9866 7.91609H62.4564C63.6496 7.91609 63.6496 6.08029 62.4564 6.08029H22.9866C22.4818 6.08029 22.0687 6.49335 22.0687 6.99819C22.0687 7.50304 22.4818 7.91609 22.9866 7.91609Z" fill="#263357"/>
<path d="M26.1993 69.9202H20.6919C19.2692 69.9202 18.1218 68.7729 18.1218 67.396V66.7535C18.1218 65.5602 16.286 65.5602 16.286 66.7535C16.286 67.4419 16.2401 67.8091 16.4237 68.4975H11.9719V54.729H14.1748C14.1748 56.2435 16.0106 56.014 16.0106 54.8667C16.0106 50.782 18.0759 48.8085 19.774 47.8447C22.5277 46.3302 24.8684 43.7142 25.0519 35.5907C27.5762 35.5907 28.953 37.2889 28.953 39.0788V45.2746C28.953 46.4679 30.7888 46.4679 30.7888 45.2746V39.0788C30.7888 36.1415 28.3564 33.7549 25.3732 33.7549H24.134C22.39 33.7549 23.9964 36.2333 22.2064 42.1996C21.7016 43.8978 20.5083 45.3205 18.8561 46.2384C17.3416 47.0645 14.955 48.9921 14.3125 52.8473H11.9719C11.9719 48.6249 12.4767 49.1757 8.30025 49.1757C7.10698 49.1757 7.10698 51.0115 8.30025 51.0115H10.1361V71.6642H3.71075C2.51748 71.6642 2.51748 73.5 3.71075 73.5H11.054C11.5588 73.5 11.9719 73.087 11.9719 72.5821V70.2874C16.4237 70.2874 16.7908 70.471 17.2039 70.012C18.8561 72.1232 20.6919 71.7101 26.1993 71.7101C26.7042 71.7101 27.1172 71.2971 27.1172 70.7922C27.1172 70.2874 26.7042 69.9202 26.1993 69.9202Z" fill="#263357"/>
<path d="M8.20848 68.5894C8.75922 66.6619 5.82194 65.8357 5.2712 67.7633C4.72046 69.6909 7.65774 70.517 8.20848 68.5894Z" fill="#263357"/>
<path d="M46.1177 17.4164H26.5665C26.0616 17.4164 25.6486 17.8295 25.6486 18.3343V31.139C25.6486 31.6439 26.0616 32.0569 26.5665 32.0569H40.4268C41.62 32.0569 41.62 30.2211 40.4268 30.2211H27.4844V19.2522H45.1998V26.9167C45.1998 28.11 47.0356 28.11 47.0356 26.9167V18.3343C47.0356 17.8295 46.6226 17.4164 46.1177 17.4164Z" fill="#263357"/>
<path d="M51.9005 19.8486H66.128C67.3212 19.8486 67.3212 18.0128 66.128 18.0128H51.9005C51.3957 18.0128 50.9826 18.4259 50.9826 18.9307C50.9826 19.4356 51.3957 19.8486 51.9005 19.8486Z" fill="#263357"/>
<path d="M51.9005 25.3561H66.128C67.3212 25.3561 67.3212 23.5203 66.128 23.5203H51.9005C51.3957 23.5203 50.9826 23.9334 50.9826 24.4382C50.9826 24.9431 51.3957 25.3561 51.9005 25.3561Z" fill="#263357"/>
<path d="M66.128 29.0278H58.3258C57.1325 29.0278 57.1325 30.8636 58.3258 30.8636H66.128C66.6328 30.8636 67.0459 30.4505 67.0459 29.9457C67.0459 29.4409 66.6328 29.0278 66.128 29.0278Z" fill="#263357"/>
<path d="M66.128 34.5351H57.8669C56.6736 34.5351 56.6736 36.3709 57.8669 36.3709H66.128C66.6328 36.3709 67.0459 35.9578 67.0459 35.453C67.0459 34.9481 66.6328 34.5351 66.128 34.5351Z" fill="#263357"/>
<path d="M66.128 40.0425H57.8669C56.6736 40.0425 56.6736 41.8783 57.8669 41.8783H66.128C66.6328 41.8783 67.0459 41.4653 67.0459 40.9604C67.0459 40.4556 66.6328 40.0425 66.128 40.0425Z" fill="#263357"/>
<path d="M43.2264 29.9456C44.1443 38.7574 43.9607 38.6656 44.695 38.941C45.3834 39.1705 45.6588 38.7115 47.2651 37.1052L50.5237 40.3638C50.8908 40.7309 51.4416 40.7309 51.8087 40.3638L54.746 37.4265C55.1132 37.0593 55.1132 36.5086 54.746 36.1414L51.4875 32.8829L53.002 31.3683C53.5527 30.8176 53.2315 29.8997 52.4513 29.8079L44.236 28.9359C43.6853 28.89 43.1805 29.349 43.2264 29.9456ZM50.386 31.4142C48.5961 33.2042 48.6879 32.6534 52.8184 36.7839L51.2121 38.3903C46.9898 34.1679 47.5864 34.2138 45.7506 36.0496L45.1998 30.8635L50.386 31.4142Z" fill="#263357"/>
<path d="M46.3931 41.4194V44.1731C46.3931 45.3664 48.2289 45.3664 48.2289 44.1731V41.4194C48.2289 40.1803 46.3931 40.1803 46.3931 41.4194Z" fill="#263357"/>
<path d="M39.9679 33.1583H37.2142C36.0209 33.1583 36.0209 34.9941 37.2142 34.9941H39.9679C41.1611 34.9941 41.1611 33.1583 39.9679 33.1583Z" fill="#263357"/>
<path d="M42.5838 27.8345L40.6563 25.9069C39.7842 25.0349 38.4992 26.3659 39.3712 27.192L41.2988 29.1196C41.6659 29.4868 42.2167 29.4868 42.5838 29.1196C42.951 28.7524 42.951 28.2017 42.5838 27.8345Z" fill="#263357"/>
<path d="M40.6563 41.7867L42.5839 39.8591C43.4559 38.9871 42.125 37.702 41.2988 38.574L39.3713 40.5016C39.0041 40.8688 39.0041 41.4195 39.3713 41.7867C39.6925 42.1539 40.2892 42.1539 40.6563 41.7867Z" fill="#263357"/>
<path d="M68.1015 7.22764C68.4228 5.98847 66.5411 5.48363 66.2198 6.76869C65.8985 8.00785 67.7802 8.4668 68.1015 7.22764Z" fill="#263357"/>
<path d="M73.15 70.6085C72.8287 71.8476 74.7104 72.3525 75.0317 71.0674C75.3529 69.8282 73.4253 69.3693 73.15 70.6085Z" fill="#263357"/>
</svg>
