<svg width="80" height="80" viewBox="0 0 80 80" fill="none" xmlns="http://www.w3.org/2000/svg">
<path d="M69.5074 51.4132C68.9992 54.2313 68.0752 59.1285 67.567 62.039C67.5208 62.3162 67.0127 65.042 64.4717 66.1046C63.7325 66.4279 67.336 65.6426 67.8442 65.735C68.3524 65.8274 69.184 65.5502 69.2764 65.042L71.9098 48.133C70.6162 48.826 69.7384 50.0272 69.5074 51.4132Z" fill="#90CEF1"/>
<path d="M27.8818 48.7334C27.5584 49.7498 27.6508 58.9435 27.3274 60.3295C27.2812 60.4681 27.235 60.6067 27.1426 60.7915C26.4034 62.4084 23.7238 66.1044 22.5226 68.322C22.384 68.5991 22.2454 68.8301 22.153 69.0611C22.0144 69.3383 21.922 69.7079 21.8296 70.0775L20.9519 69.8003L17.9951 68.8301L19.6583 67.4442C19.8431 67.1208 23.8624 60.6529 24.3706 59.8213C25.1098 58.6663 24.7402 53.2148 25.2946 52.2446C27.466 48.4562 28.2976 44.5755 28.3438 41.5725C28.8982 42.9123 28.9444 45.1761 27.8818 48.7334Z" fill="#90CEF1"/>
<path d="M39.3854 65.0421C40.1509 65.0421 40.7714 64.4216 40.7714 63.6562C40.7714 62.8907 40.1509 62.2702 39.3854 62.2702C38.62 62.2702 37.9994 62.8907 37.9994 63.6562C37.9994 64.4216 38.62 65.0421 39.3854 65.0421Z" fill="#61C4F2"/>
<path d="M44.0054 65.0421C44.7708 65.0421 45.3913 64.4216 45.3913 63.6562C45.3913 62.8907 44.7708 62.2702 44.0054 62.2702C43.2399 62.2702 42.6194 62.8907 42.6194 63.6562C42.6194 64.4216 43.2399 65.0421 44.0054 65.0421Z" fill="#61C4F2"/>
<path d="M34.7655 65.0421C35.5309 65.0421 36.1514 64.4216 36.1514 63.6562C36.1514 62.8907 35.5309 62.2702 34.7655 62.2702C34 62.2702 33.3795 62.8907 33.3795 63.6562C33.3795 64.4216 34 65.0421 34.7655 65.0421Z" fill="#61C4F2"/>
<path d="M12.1278 22.5385C12.636 22.5385 13.0517 22.1228 13.0517 21.6146V13.2063C13.0517 8.17053 17.1635 4.05879 22.1992 4.05879H24.9712C25.4794 4.05879 25.8952 3.643 25.8952 3.1348C25.8952 2.62661 25.4794 2.21082 24.9712 2.21082H22.1992C16.1009 2.21082 11.2038 7.15415 11.2038 13.2063V21.6146C11.2038 22.1228 11.6196 22.5385 12.1278 22.5385Z" fill="#263357"/>
<path d="M21.0443 71.7869C20.3975 71.4173 19.6121 71.6483 19.2887 72.2951C18.9191 72.9419 19.1501 73.7273 19.7969 74.0507C20.4437 74.4203 21.2291 74.1893 21.5525 73.5425C21.8758 72.9419 21.691 72.1565 21.0443 71.7869Z" fill="#263357"/>
<path d="M73.9426 67.8602L72.7876 64.2105C72.6952 63.9795 72.5566 63.7947 72.3256 63.6561C72.0946 63.5637 71.8636 63.5175 71.6326 63.6099L71.032 63.7947C71.263 62.4087 71.6326 60.2373 72.0484 58.1122C72.3718 56.3566 72.649 54.7396 72.8338 53.5846C73.3882 50.1659 73.6654 48.5027 73.111 46.7009C73.111 46.7009 73.0186 46.4237 72.9262 46.1003C72.0484 43.7903 68.8144 39.9096 62.9933 34.1347V13.2063C62.9933 10.2034 60.5447 7.70862 57.4956 7.70862H22.2454C19.2425 7.70862 16.7477 10.1572 16.7477 13.1601V34.1347C10.9728 40.002 7.69263 43.8827 6.86104 46.1465C6.76864 46.4699 6.67624 46.7471 6.67624 46.7471C6.16805 48.5027 6.39904 50.2121 6.95344 53.6308C7.13823 54.7858 7.46163 56.449 7.78503 58.2508C8.15462 60.3297 8.57042 62.4549 8.75521 63.7947L8.15462 63.6099C7.92362 63.5175 7.69263 63.5637 7.46163 63.6561C7.23063 63.7485 7.09203 63.9795 6.99964 64.2105L5.84465 67.8602C5.70605 68.3684 5.93705 68.8766 6.44524 69.0152C6.95344 69.1538 7.46163 68.9228 7.60023 68.4146L8.47802 65.6427L8.89381 65.7812L10.6956 66.3818L17.9951 68.738L20.9519 69.7082L22.7074 70.2626L23.4928 70.4936L21.46 76.7305C21.3214 77.2387 21.5524 77.7469 22.0606 77.8855C22.153 77.9317 22.2454 77.9317 22.3378 77.9317C22.7536 77.9317 23.077 77.7007 23.2156 77.2849L25.5256 70.1702C25.6642 69.662 25.4332 69.1538 24.925 69.0152L23.4004 68.507C23.539 68.2298 23.77 67.9064 23.9548 67.583C24.0934 67.6754 24.2782 67.7678 24.5092 67.7678H55.2318C55.4166 67.7678 55.6014 67.7216 55.7862 67.583C55.971 67.9064 56.202 68.2298 56.3406 68.507L54.816 69.0152C54.3078 69.1538 54.0768 69.7082 54.2154 70.1702L56.5254 77.2849C56.664 77.6545 57.0336 77.9317 57.4032 77.9317C57.4956 77.9317 57.588 77.9317 57.6804 77.8855C58.1886 77.7469 58.4196 77.1925 58.281 76.7305L56.2482 70.4936L57.0336 70.2164L58.7892 69.662L69.0916 66.3356L70.8934 65.7351L71.3092 65.5965L72.187 68.3684C72.3256 68.8304 72.88 69.1076 73.342 68.969C73.8502 68.8766 74.1273 68.3684 73.9426 67.8602ZM18.5957 13.2525C18.5957 11.266 20.2127 9.64898 22.2454 9.64898H57.4956C59.4821 9.64898 61.1453 11.266 61.1453 13.2987V34.5967V50.3969C60.2213 49.9811 59.7593 49.2881 59.6669 49.0571C59.2512 48.0407 59.1126 46.7471 58.9278 45.4535C58.7892 44.3909 58.6506 43.2821 58.3734 42.312V15.1467C58.3734 13.6221 57.126 12.4209 55.6476 12.4209H24.1396C22.615 12.4209 21.3676 13.6683 21.3676 15.1467V42.2658C21.0905 43.2821 20.9519 44.3909 20.8133 45.4535C20.6285 46.7471 20.4899 48.0869 20.0741 49.0571C20.0279 49.1957 19.5659 49.9349 18.5957 50.3969V34.5967V13.2525V13.2525ZM50.9815 48.9647C51.1201 49.4267 51.1663 52.291 51.2125 54.4162C51.2587 56.7262 51.3049 58.4356 51.3973 59.4981H28.2976C28.39 58.4356 28.4362 56.7262 28.4824 54.4162C28.5286 52.3372 28.621 49.4267 28.7134 48.9647C30.0531 44.5295 29.9145 41.388 28.2976 39.7248C27.1426 38.5236 25.618 38.4312 24.5092 38.7084C24.001 38.847 23.5852 39.0318 23.2156 39.309V15.1005C23.2156 14.5923 23.6314 14.2227 24.1396 14.2227H55.6014C56.1096 14.2227 56.4792 14.6385 56.4792 15.1005V39.309C56.1096 39.0318 55.6938 38.847 55.1394 38.7084C54.0768 38.4312 52.506 38.5698 51.3511 39.7248C49.7803 41.4342 49.6417 44.5295 50.9815 48.9647ZM21.5986 67.9988L19.6583 67.352L10.6494 64.4877C10.6494 64.3953 10.6032 64.2567 10.6032 64.1181C10.4184 62.7783 9.9564 60.3297 9.5406 57.9274C9.21721 56.1256 8.89381 54.4624 8.70901 53.3536C8.20082 50.2121 7.96982 48.6413 8.38562 47.3015C8.38562 47.3015 8.47802 47.0705 8.57041 46.7933C9.26341 44.9453 12.0354 41.619 16.7477 36.8142V51.7366C16.7477 52.2448 17.1635 52.6606 17.6717 52.6606C17.9027 52.6606 18.0875 52.5682 18.2261 52.4758C18.5495 52.3834 18.9653 52.2448 19.3811 52.0138C20.6285 51.4132 21.5062 50.3969 21.7834 49.7039C22.2916 48.5027 22.4764 47.0243 22.615 45.6383C22.9846 42.7278 23.3542 40.8798 24.9712 40.464C25.5256 40.3254 26.3572 40.3716 26.9578 40.9722C27.3274 41.3418 27.7894 42.1734 27.7894 43.7441C27.7894 44.8529 27.5584 46.3775 26.9578 48.3641C26.773 48.9647 26.7268 50.6278 26.6344 54.2776C26.5882 56.5414 26.4958 59.4057 26.3572 59.9601C26.3572 60.0063 26.311 60.0987 26.2186 60.2835C25.849 61.0689 24.8788 62.5473 24.001 63.9795C23.1232 65.4579 22.1992 66.9362 21.5986 67.9988ZM25.0174 65.9661C25.2022 65.6889 25.387 65.3655 25.618 65.0883C26.542 63.6561 27.466 62.2701 27.8818 61.3461H51.9054C52.3674 62.2701 53.2452 63.6099 54.1692 65.0883C54.354 65.3655 54.5388 65.6889 54.7698 65.9661H25.0174ZM58.0962 67.9988C57.5418 66.89 56.5716 65.4579 55.6938 64.0719C54.7698 62.6397 53.8458 61.2075 53.43 60.3759C53.3838 60.2835 53.3376 60.1449 53.2914 60.0987C53.1528 59.4519 53.1066 56.6338 53.0604 54.4162C52.968 50.7665 52.9218 49.1033 52.737 48.5027C51.2587 43.5593 52.0902 41.7576 52.737 41.0646C53.3376 40.464 54.1692 40.4178 54.7236 40.5564C56.3406 40.9722 56.7102 42.774 57.0798 45.7307C57.2646 47.1167 57.4494 48.5951 57.9114 49.7963C58.1886 50.4893 59.0202 51.5056 60.3137 52.1062C60.6833 52.291 61.0991 52.4296 61.4225 52.522C61.6073 52.6606 61.7921 52.753 62.0231 52.753C62.5313 52.753 62.9471 52.3372 62.9471 51.829V51.6904V36.8142C68.8144 42.774 70.6624 45.5459 71.1244 46.8395C71.2168 47.0705 71.3092 47.3477 71.3092 47.3477C71.725 48.7337 71.494 50.3045 70.9858 53.3998C70.801 54.5086 70.5238 56.1256 70.2004 57.8812C69.7384 60.3297 69.3226 62.8245 69.1378 64.1643C69.1378 64.3029 69.0916 64.3953 69.0916 64.4877L58.0962 67.9988Z" fill="#263357"/>
<path d="M58.6968 71.7869C58.05 72.1565 57.8652 72.9419 58.1886 73.5425C58.5582 74.1893 59.3435 74.3741 59.9441 74.0507C60.5909 73.6811 60.7757 72.8957 60.4523 72.2951C60.0827 71.6483 59.2973 71.4173 58.6968 71.7869Z" fill="#263357"/>
<path d="M67.567 29.6531C68.0752 29.6531 68.491 29.2373 68.491 28.7291V18.4267C68.491 17.9185 68.0752 17.5027 67.567 17.5027C67.0589 17.5027 66.6431 17.9185 66.6431 18.4267V28.7291C66.6431 29.2373 67.0589 29.6531 67.567 29.6531Z" fill="#263357"/>
<path d="M31.5315 41.9422H46.3153C46.8235 41.9422 47.2393 41.5265 47.2393 41.0183C47.2393 40.5101 46.8235 40.0943 46.3153 40.0943H31.5315C31.0233 40.0943 30.6075 40.5101 30.6075 41.0183C30.6075 41.5265 31.0233 41.9422 31.5315 41.9422Z" fill="#263357"/>
<path d="M31.5315 45.6384H40.7714C41.2796 45.6384 41.6954 45.2226 41.6954 44.7144C41.6954 44.2062 41.2796 43.7904 40.7714 43.7904H31.5315C31.0233 43.7904 30.6075 44.2062 30.6075 44.7144C30.6075 45.2226 31.0233 45.6384 31.5315 45.6384Z" fill="#263357"/>
<path d="M38.9234 53.0302H31.5315C31.0233 53.0302 30.6075 53.4459 30.6075 53.9541C30.6075 54.4623 31.0233 54.8781 31.5315 54.8781H38.9234C39.4316 54.8781 39.8474 54.4623 39.8474 53.9541C39.8474 53.4459 39.4316 53.0302 38.9234 53.0302Z" fill="#263357"/>
<path d="M47.2393 53.0302H41.6954C41.1872 53.0302 40.7714 53.4459 40.7714 53.9541C40.7714 54.4623 41.1872 54.8781 41.6954 54.8781H47.2393C47.7475 54.8781 48.1633 54.4623 48.1633 53.9541C48.1633 53.4459 47.7475 53.0302 47.2393 53.0302Z" fill="#263357"/>
<path d="M48.1633 49.3343H31.5315C31.0233 49.3343 30.6075 49.7501 30.6075 50.2583C30.6075 50.7665 31.0233 51.1823 31.5315 51.1823H48.1633C48.6715 51.1823 49.0873 50.7665 49.0873 50.2583C49.0873 49.7501 48.6715 49.3343 48.1633 49.3343Z" fill="#263357"/>
<path d="M27.9279 4.15112C28.4893 4.15112 28.9443 3.69607 28.9443 3.13474C28.9443 2.5734 28.4893 2.11835 27.9279 2.11835C27.3666 2.11835 26.9116 2.5734 26.9116 3.13474C26.9116 3.69607 27.3666 4.15112 27.9279 4.15112Z" fill="#263357"/>
<path d="M67.567 33.0259C68.1283 33.0259 68.5834 32.5708 68.5834 32.0095C68.5834 31.4482 68.1283 30.9931 67.567 30.9931C67.0057 30.9931 66.5506 31.4482 66.5506 32.0095C66.5506 32.5708 67.0057 33.0259 67.567 33.0259Z" fill="#263357"/>
<path fill-rule="evenodd" clip-rule="evenodd" d="M38.5538 30.947L43.4509 27.713C43.6357 27.6206 43.7281 27.4358 43.7281 27.2048C43.7281 26.9276 43.6357 26.7428 43.4509 26.6504L38.5538 23.4165C38.1773 23.2282 37.652 23.494 37.6312 23.9144C37.6303 23.9328 37.6298 23.9516 37.6298 23.9709V30.3926C37.6298 30.5258 37.6605 30.6436 37.7308 30.7461C37.8443 30.9115 38.0299 31.0394 38.2304 31.0394C38.369 31.0394 38.4614 30.9932 38.5538 30.947L38.5538 30.947ZM39.75 19C35.4698 19 32 22.4698 32 26.75V27.25C32 31.5302 35.4698 35 39.75 35C44.0302 35 47.5 31.5302 47.5 27.25V26.75C47.5 22.4698 44.0302 19 39.75 19Z" fill="#169AD7"/>
</svg>
