<svg width="80" height="80" viewBox="0 0 80 80" fill="none" xmlns="http://www.w3.org/2000/svg">
<path d="M68.0226 45.4086L63.5269 49.5695C62.953 50.1434 61.9965 49.713 61.9965 48.8999V38.2825C61.9965 38.2347 61.9965 38.2347 61.9965 38.1869C61.9965 38.0912 61.9965 37.9956 61.9487 37.8999C61.9487 37.8043 61.9009 37.7086 61.9009 37.6608C61.9009 37.5651 61.853 37.4695 61.8052 37.3738C61.7574 37.2782 61.7574 37.1825 61.7096 37.1347C61.6617 37.039 61.6139 36.9912 61.5661 36.8956C61.5183 36.7999 61.4704 36.7521 61.4226 36.6564C61.3748 36.5608 61.327 36.513 61.2313 36.4173C61.1835 36.3695 61.1357 36.2738 61.04 36.226L60.8487 36.0347C60.753 35.9869 60.7052 35.8912 60.6096 35.8434C60.5617 35.8434 60.5617 35.7956 60.5139 35.7956L59.7009 35.3173L59.4139 35.1738L59.0791 34.9825H55.3009L58.1226 36.6086V59.1347C58.4574 58.9912 58.7922 58.7999 59.0791 58.513L60.0356 57.5565L68.6922 48.9478V46.0782C67.7357 46.0304 68.7878 44.6912 68.0226 45.4086Z" fill="#90CEF1"/>
<path d="M47.84 53.9695H47.7921C47.2661 54.639 46.5487 55.0695 45.7356 55.3086L48.4139 61.1912L49.8487 57.3651L53.6748 58.7999L51.1878 53.3477C50.1834 54.0173 48.9878 54.2564 47.84 53.9695Z" fill="#169AD7"/>
<path d="M41.1442 61.1434L43.8225 55.2608C43.0095 55.0695 42.2921 54.5912 41.766 53.9217C41.766 53.9217 41.7182 53.8738 41.7182 53.9217C40.5703 54.2086 39.3747 54.0173 38.4181 53.2999L35.9312 58.7521L39.7095 57.3173L41.1442 61.1434Z" fill="#169AD7"/>
<path d="M43.4879 48.6609C43.8705 48.8043 44.3009 48.8522 44.7313 48.8522C45.1618 48.8522 45.5922 48.8043 45.9748 48.6609C46.8835 48.3739 47.6965 47.8 48.2226 47.0348C48.7009 46.3174 48.9879 45.4565 48.9879 44.5478C48.9879 42.1565 47.0748 40.2435 44.6835 40.2435C42.2922 40.2435 40.3792 42.1565 40.3792 44.5478C40.3792 45.4565 40.6661 46.3174 41.1922 47.0348C41.8139 47.8 42.5792 48.3739 43.4879 48.6609Z" fill="#169AD7"/>
<path d="M36.1704 46.6999C36.1704 47.4652 36.6486 48.2304 37.4617 48.5652C37.8443 48.7086 38.1312 48.9478 38.3704 49.2347C38.6095 49.5217 38.7051 49.9043 38.753 50.2869C38.753 50.7652 38.9921 51.1956 39.2791 51.5304C39.6617 51.913 40.1878 52.1999 40.7139 52.1999C40.9052 52.1999 41.0486 52.1521 41.2399 52.1043C41.4312 52.0565 41.5747 52.0565 41.766 52.0565C42.3399 52.0565 42.9139 52.2956 43.2965 52.7739C43.6791 53.2043 44.1573 53.4434 44.6834 53.4913C44.7313 53.4913 44.7791 53.4913 44.8269 53.4913C44.8747 53.4913 44.9225 53.4913 44.9704 53.4913C45.4965 53.4434 45.9747 53.2043 46.3573 52.7739C46.74 52.2956 47.3139 52.0565 47.8878 52.0565C48.0313 52.0565 48.2226 52.0565 48.4139 52.1043C48.6052 52.1521 48.7486 52.1999 48.9399 52.1999C49.5139 52.1999 50.0399 51.9608 50.3747 51.5304C50.6617 51.1956 50.853 50.7652 50.9008 50.2869C50.9008 49.9043 51.0443 49.5217 51.2834 49.2347C51.5226 48.9478 51.8095 48.7086 52.1921 48.5652C53.0052 48.2782 53.4834 47.513 53.4834 46.6999C53.4834 46.3173 53.3878 45.9825 53.1487 45.6478C52.9574 45.313 52.8139 44.9304 52.8139 44.5956C52.8139 44.213 52.9095 43.8304 53.1487 43.5434C53.3878 43.2086 53.4834 42.826 53.4834 42.4912C53.4834 41.726 53.0052 40.9608 52.1921 40.626C51.8095 40.4825 51.5226 40.2434 51.2834 39.9564C51.0443 39.6695 50.9487 39.2869 50.9008 38.9043C50.853 37.8043 49.9443 37.039 48.9399 37.039C48.7486 37.039 48.6052 37.039 48.4139 37.0869C47.6486 37.2782 46.8834 37.0391 46.3573 36.4173C45.9747 35.9391 45.4008 35.6999 44.8269 35.6999C44.253 35.6999 43.6791 35.9391 43.2965 36.4173C42.9139 36.8956 42.3399 37.1347 41.766 37.1347C41.5747 37.1347 41.4312 37.1347 41.2399 37.0869C41.0486 37.039 40.9052 37.039 40.7139 37.039C39.7095 37.039 38.8008 37.8521 38.753 38.9043C38.753 39.2869 38.6095 39.6695 38.3704 39.9564C38.1312 40.2434 37.8443 40.4825 37.4617 40.626C36.6486 40.913 36.1704 41.6782 36.1704 42.4912C36.1704 42.8738 36.266 43.2564 36.5051 43.5434C36.7443 43.8782 36.8399 44.2608 36.8399 44.5956C36.8399 44.9782 36.7443 45.3608 36.5051 45.6478C36.266 45.9825 36.1704 46.3173 36.1704 46.6999ZM38.6095 43.6869C38.7052 42.9695 38.9443 42.2521 39.2791 41.6304C39.566 41.1043 39.9008 40.626 40.2834 40.2434C40.7617 39.7173 41.3834 39.2869 42.0051 38.9521C42.5312 38.713 43.0573 38.5217 43.6312 38.426C43.966 38.3782 44.3486 38.3304 44.7312 38.3304C45.1139 38.3304 45.4486 38.3782 45.7834 38.426C46.3573 38.5217 46.9313 38.713 47.4573 38.9521C48.1269 39.2869 48.7008 39.7173 49.1791 40.1956C49.5617 40.626 49.9443 41.1043 50.1834 41.5825C50.5182 42.2043 50.7573 42.9217 50.853 43.6391C50.9008 43.926 50.9008 44.213 50.9008 44.4999C50.9008 44.7869 50.9008 45.0739 50.853 45.3608C50.7573 46.0782 50.5182 46.7956 50.1834 47.4173C49.8965 47.9434 49.5617 48.4217 49.1791 48.8043C49.1312 48.8521 49.1313 48.8521 49.0834 48.8999C48.6052 49.3782 48.0313 49.7608 47.4095 50.0956C46.9313 50.3347 46.3573 50.526 45.8312 50.6217V50.5739C45.7834 50.5739 45.7834 50.6217 45.7356 50.6217C45.4008 50.6695 45.0182 50.7173 44.6834 50.7173C44.3008 50.7173 43.966 50.6695 43.6312 50.6217C43.5834 50.6217 43.5834 50.5739 43.5356 50.5739V50.6217C42.9617 50.526 42.4356 50.3347 41.9573 50.0956C41.3356 49.8086 40.7617 49.3782 40.2834 48.8999C40.2356 48.8999 40.2356 48.8521 40.1878 48.8043C39.8051 48.3738 39.4226 47.9434 39.1834 47.4173C38.8486 46.7956 38.6095 46.0782 38.5138 45.3608C38.466 45.0739 38.466 44.7869 38.466 44.4999C38.5617 44.2608 38.5617 43.9738 38.6095 43.6869Z" fill="#169AD7"/>
<path d="M49.5617 65.9261V64.9696H35.2138H16.0834H6.51813V65.9261C6.51813 68.5566 8.6703 70.7087 11.3007 70.7087H54.2964C51.7138 70.7087 49.5617 68.5566 49.5617 65.9261Z" fill="#90CEF1"/>
<path d="M65.8226 12.839C65.8226 11.1651 64.5791 9.77813 62.953 9.53899C62.8095 9.49117 62.6182 9.49118 62.4748 9.49118C60.6095 9.49118 59.1269 11.0216 59.1269 12.839V15.2303H65.8226V12.839Z" fill="#90CEF1"/>
<path d="M74.0009 52.9649L69.6487 48.5171V34.8388C69.6487 34.791 69.6487 34.6954 69.6487 34.6475C69.553 33.0693 68.6443 31.5867 67.3052 30.7736L60.0835 26.5649V16.2345H65.8226C66.3487 16.2345 66.7791 15.804 66.7791 15.2779V12.8866C66.7791 10.7823 65.2008 8.91706 63.1443 8.6301C62.953 8.58228 62.7139 8.58228 62.4748 8.58228H16.5617C14.1704 8.58228 12.2573 10.4953 12.2573 12.8866V45.8867C12.2573 45.9345 12.2573 46.0302 12.2573 46.078V64.0606H6.51817C5.99208 64.0606 5.56165 64.491 5.56165 65.0171V65.9737C5.56165 69.1302 8.14426 71.7128 11.3008 71.7128H15.5573H54.3443C57.5008 71.7128 60.0356 69.1302 60.0356 65.9737V58.9432L68.6443 50.3345L72.5661 54.3519C72.9487 54.7345 73.5226 54.7345 73.9052 54.3519C74.3835 53.9693 74.3835 53.3476 74.0009 52.9649ZM66.3009 32.3997C67.2096 32.9258 67.7356 33.8823 67.7356 34.9345V48.5171L60.0356 55.9302V36.0823C60.0356 36.0345 60.0356 35.9867 60.0356 35.9388C60.0356 35.891 60.0356 35.8432 60.0356 35.8432C60.0356 35.7954 60.0356 35.7475 59.9878 35.7475C59.9878 35.6997 59.94 35.6519 59.94 35.6519C59.94 35.6041 59.8921 35.6041 59.8921 35.5562L59.8443 35.5084L59.7965 35.4606L59.7487 35.4127C59.7008 35.3649 59.653 35.3649 59.6052 35.3171H59.5574L54.1052 32.1127C52.7182 31.2997 52.24 29.5301 53.053 28.1432C53.5791 27.2345 54.5356 26.7084 55.5878 26.7084C56.1139 26.7084 56.5921 26.8519 57.0226 27.091L58.553 27.9997L58.6487 28.0475L66.3009 32.3997ZM64.8661 12.8388V14.2736H60.0835V12.8388C60.0835 11.4997 61.1356 10.4475 62.4748 10.4475C62.6182 10.4475 62.7139 10.4475 62.8095 10.4953C63.9574 10.6388 64.8661 11.691 64.8661 12.8388ZM13.2138 69.7519H11.3008C9.19643 69.7519 7.47469 68.0302 7.47469 65.9258H12.2573H14.1704H48.5573C48.5573 67.4084 49.1313 68.7476 50.04 69.7519H13.2138ZM58.1704 65.9258C58.1704 68.0302 56.4487 69.7519 54.3443 69.7519C52.24 69.7519 50.5182 68.0302 50.5182 65.9258V64.9693C50.5182 64.4432 50.0878 64.0128 49.5617 64.0128H14.2182V45.8389C14.2182 45.791 14.2182 45.6954 14.2182 45.6475V12.8388C14.2182 11.4997 15.2703 10.4475 16.6095 10.4475H58.9356C58.84 10.591 58.7443 10.7823 58.6487 10.9258C58.6487 10.9736 58.6008 10.9736 58.6008 11.0214C58.4574 11.3562 58.3139 11.7388 58.266 12.1214C58.266 12.1692 58.266 12.1692 58.266 12.2171C58.2182 12.4084 58.2182 12.5997 58.2182 12.8388V15.2301V25.4171L58.0748 25.3214C57.3574 24.891 56.4965 24.6519 55.6356 24.6519C53.9139 24.6519 52.2878 25.5606 51.4269 27.0432C50.0878 29.3388 50.853 32.3041 53.1487 33.6432L55.3487 34.9345L58.1704 36.5606V58.0345V60.1389V65.9258Z" fill="#263357"/>
<path d="M69.4573 53.7781C68.8356 53.3477 68.0225 53.539 67.5921 54.1129C67.1617 54.7347 67.353 55.5477 67.9269 55.9781C68.5486 56.4086 69.3617 56.2651 69.7921 55.6434C70.2226 55.0695 70.0791 54.2086 69.4573 53.7781Z" fill="#263357"/>
<path d="M51.4748 17.1436C51.4748 16.6175 51.0443 16.1871 50.5182 16.1871H44.7791C44.253 16.1871 43.8226 16.6175 43.8226 17.1436C43.8226 17.6697 44.253 18.1001 44.7791 18.1001H50.5182C51.0443 18.1001 51.4748 17.6697 51.4748 17.1436Z" fill="#263357"/>
<path d="M19.9095 18.1001H40.953C41.4791 18.1001 41.9096 17.6697 41.9096 17.1436C41.9096 16.6175 41.4791 16.1871 40.953 16.1871H19.9095C19.3834 16.1871 18.953 16.6175 18.953 17.1436C18.953 17.6697 19.3834 18.1001 19.9095 18.1001Z" fill="#263357"/>
<path d="M47.6487 21.926H19.9095C19.3834 21.926 18.953 22.3564 18.953 22.8825C18.953 23.4086 19.3834 23.839 19.9095 23.839H47.6487C48.1748 23.839 48.6052 23.4086 48.6052 22.8825C48.6052 22.3564 48.1748 21.926 47.6487 21.926Z" fill="#263357"/>
<path d="M46.6921 27.6651H29.4747C28.9486 27.6651 28.5182 28.0956 28.5182 28.6217C28.5182 29.1477 28.9486 29.5782 29.4747 29.5782H46.6921C47.2182 29.5782 47.6486 29.1477 47.6486 28.6217C47.6486 28.0956 47.2182 27.6651 46.6921 27.6651Z" fill="#263357"/>
<path d="M36.1704 33.4043H19.9095C19.3834 33.4043 18.953 33.8347 18.953 34.3608C18.953 34.8869 19.3834 35.3173 19.9095 35.3173H36.1704C36.6965 35.3173 37.1269 34.8869 37.1269 34.3608C37.1269 33.8347 36.6965 33.4043 36.1704 33.4043Z" fill="#263357"/>
<path d="M19.9095 29.5782H25.6487C26.1748 29.5782 26.6052 29.1477 26.6052 28.6217C26.6052 28.0956 26.1748 27.6651 25.6487 27.6651H19.9095C19.3834 27.6651 18.953 28.0956 18.953 28.6217C18.953 29.1477 19.3834 29.5782 19.9095 29.5782Z" fill="#263357"/>
<path d="M19.9095 41.0567H33.3008C33.8269 41.0567 34.2574 40.6263 34.2574 40.1002C34.2574 39.5741 33.8269 39.1436 33.3008 39.1436H19.9095C19.3834 39.1436 18.953 39.5741 18.953 40.1002C18.953 40.6263 19.3834 41.0567 19.9095 41.0567Z" fill="#263357"/>
<path d="M19.9095 46.7956H30.4313C30.9574 46.7956 31.3878 46.3651 31.3878 45.8391C31.3878 45.313 30.9574 44.8825 30.4313 44.8825H19.9095C19.3834 44.8825 18.953 45.313 18.953 45.8391C18.953 46.3651 19.3834 46.7956 19.9095 46.7956Z" fill="#263357"/>
<path d="M34.2574 50.6217H19.9095C19.3834 50.6217 18.953 51.0521 18.953 51.5782C18.953 52.1043 19.3834 52.5347 19.9095 52.5347H34.2574C34.7835 52.5347 35.2139 52.1043 35.2139 51.5782C35.2139 51.0521 34.7835 50.6217 34.2574 50.6217Z" fill="#263357"/>
<path d="M31.3878 56.3608H19.9095C19.3834 56.3608 18.953 56.7912 18.953 57.3173C18.953 57.8434 19.3834 58.2739 19.9095 58.2739H31.3878C31.9139 58.2739 32.3443 57.8434 32.3443 57.3173C32.3443 56.7912 31.9139 56.3608 31.3878 56.3608Z" fill="#263357"/>
<path d="M7.47477 29.5782C8.00086 29.5782 8.4313 29.1478 8.4313 28.6217V12.8391C8.4313 8.34343 12.0661 4.70864 16.5617 4.70864H20.8661C21.3922 4.70864 21.8226 4.2782 21.8226 3.75212C21.8226 3.22603 21.3922 2.79559 20.8661 2.79559H16.5617C11.0139 2.79559 6.51825 7.29125 6.51825 12.8391V28.6217C6.51825 29.1478 6.94868 29.5782 7.47477 29.5782Z" fill="#263357"/>
<path d="M23.7357 4.80412C24.3168 4.80412 24.7878 4.33305 24.7878 3.75195C24.7878 3.17085 24.3168 2.69977 23.7357 2.69977C23.1546 2.69977 22.6835 3.17085 22.6835 3.75195C22.6835 4.33305 23.1546 4.80412 23.7357 4.80412Z" fill="#263357"/>
<path d="M39.9965 77.5C40.5776 77.5 41.0486 77.0289 41.0486 76.4478C41.0486 75.8667 40.5776 75.3956 39.9965 75.3956C39.4154 75.3956 38.9443 75.8667 38.9443 76.4478C38.9443 77.0289 39.4154 77.5 39.9965 77.5Z" fill="#263357"/>
<path d="M64.8661 64.9698C64.34 64.9698 63.9095 65.4002 63.9095 65.9263C63.9095 71.1872 59.6052 75.4915 54.3443 75.4915H42.9139C42.3878 75.4915 41.9573 75.9219 41.9573 76.448C41.9573 76.9741 42.3878 77.4046 42.9139 77.4046H54.3443C60.6574 77.4046 65.8226 72.2393 65.8226 65.9263C65.8226 65.4002 65.3922 64.9698 64.8661 64.9698Z" fill="#263357"/>
</svg>
