<svg width="80" height="80" viewBox="0 0 80 80" fill="none" xmlns="http://www.w3.org/2000/svg">
<path d="M52.2213 40.2431V10.5592H43.7198V45.61C46.237 43.8527 49.7041 41.098 52.2213 40.2431Z" fill="#169AD7"/>
<path d="M48.9917 53.1141C48.3742 53.4466 46.0945 55.5838 43.6723 57.9111V70.4021H52.1738V51.8318C51.5564 52.2117 49.7991 52.6867 48.9917 53.1141Z" fill="#169AD7"/>
<path d="M6.29429 15.4511C8.00409 7.18706 16.1731 2.01016 24.2946 3.76745C25.5295 4.05241 25.1021 5.9047 23.8672 5.61974C16.7905 4.05242 9.61889 8.61188 8.14657 15.831C7.9091 17.0659 6.05682 16.6859 6.29429 15.4511Z" fill="#90CEF1"/>
<path d="M28.391 25.1278C32.0536 21.0838 31.7444 14.8365 27.7005 11.1739C23.6566 7.51136 17.4092 7.82052 13.7467 11.8645C10.0841 15.9084 10.3932 22.1557 14.4372 25.8183C18.4811 29.4809 24.7285 29.1717 28.391 25.1278Z" fill="#90CEF1"/>
<path d="M20.685 24.5698C20.2576 24.5698 19.7352 24.2849 19.7352 23.9049V23.24C18.3578 23.05 17.218 22.3376 16.8855 20.9603C16.838 20.6753 17.0755 20.2953 17.7404 20.2953C18.1679 20.2953 18.5478 20.3903 18.6428 20.7703C19.0227 22.1001 21.2075 22.1001 22.0624 21.3877C22.7748 20.8178 22.7748 19.6304 21.9674 19.108C20.9225 18.4905 17.2655 18.5855 17.2655 15.9734C17.2655 14.2636 18.0729 13.6461 19.7352 13.1712V12.4588C19.7352 12.0788 20.2576 11.7939 20.685 11.7939C21.1125 11.7939 21.6349 12.0788 21.6349 12.4588V13.2187C24.3896 13.8361 24.5321 15.8784 23.1073 15.8784C22.2524 15.8784 22.3948 15.3084 21.8724 14.9285C21.255 14.501 20.0676 14.501 19.4977 14.976C18.9752 15.4034 18.6428 16.4958 19.9726 16.9232C21.5874 17.3507 24.3896 17.6832 24.3896 20.1054C24.3896 21.7677 23.2972 23.0025 21.6349 23.1925V23.9049C21.6349 24.2374 21.16 24.5698 20.685 24.5698Z" fill="white"/>
<path d="M6.38923 20.7228C6.05677 22.0051 8.00403 22.5276 8.33649 21.1977C8.66895 19.9154 6.72169 19.4405 6.38923 20.7228Z" fill="#90CEF1"/>
<path d="M64.1424 36.491C63.8099 37.7733 65.7572 38.2957 66.0897 36.9659C66.4221 35.6835 64.4749 35.1611 64.1424 36.491Z" fill="#263357"/>
<path d="M64.1424 31.7416C63.8099 33.0239 65.7572 33.5464 66.0897 32.2165C66.4221 30.9342 64.4749 30.4118 64.1424 31.7416Z" fill="#263357"/>
<path d="M70.4117 70.877H39.0654C37.3556 70.877 35.9783 69.3097 35.9783 67.4099C35.9783 66.175 37.8781 66.175 37.8781 67.4099C37.8781 68.2648 38.448 68.9772 39.0654 68.9772H70.4117C71.0766 68.9772 71.599 68.2648 71.599 67.4099V12.6014C71.599 11.7465 71.0291 11.0341 70.4117 11.0341H38.353C37.6881 11.0341 37.1656 11.7465 37.1656 12.6014V22.9077C37.1656 23.4301 36.7382 23.8576 36.2158 23.8576C35.6933 23.8576 35.2659 23.4301 35.2659 22.9077V12.6014C35.2659 10.7016 36.6432 9.13431 38.353 9.13431H70.4117C72.1215 9.13431 73.4988 10.7016 73.4988 12.6014V67.4099C73.5463 69.3097 72.169 70.877 70.4117 70.877Z" fill="#263357"/>
<path d="M64.0949 62.5654V41.3829C64.0949 40.1481 65.9947 40.1481 65.9947 41.3829V62.5654C65.9947 63.8003 64.0949 63.8003 64.0949 62.5654Z" fill="#263357"/>
<path d="M36.2157 62.9454C37.2131 62.328 42.4374 57.1986 45.5721 54.3014C39.5878 57.5785 34.3159 61.1881 32.6061 61.3781C30.2789 61.663 24.3896 61.2831 20.875 61.4256L23.2972 66.175C26.7168 65.0351 34.6009 63.8478 36.2157 62.9454Z" fill="#169AD7"/>
<path d="M22.6799 66.3174C25.8145 65.0826 34.8859 63.7052 36.3582 62.8028C37.9255 61.853 46.997 52.5916 48.5168 51.7842C55.071 48.2696 56.1159 45.4199 56.1159 44.0426C56.1634 42.7127 55.3085 41.7154 54.5011 41.2404C50.749 39.0082 46.427 45.2299 41.7726 47.2247C38.2105 48.7445 34.7434 46.0373 35.2184 42.7127V29.6043C24.6746 31.3616 22.8223 33.2139 19.7352 42.4753C18.9278 44.945 16.5531 52.4491 14.7008 50.6918C14.3209 50.3118 14.2734 49.7419 14.6533 49.3145C18.1679 45.5149 18.2629 32.359 27.3818 29.4618C29.2816 28.8444 32.0363 28.0845 36.0733 27.5145C36.6432 27.4196 37.1656 27.8945 37.1656 28.4644C37.1656 28.6069 37.1656 42.8077 37.1656 42.9502C37.0232 43.9001 37.4981 44.8975 38.4005 45.4199C42.77 47.8421 49.0867 35.7786 55.4985 39.5781C58.3481 41.2879 61.3403 47.0347 49.4192 53.4465C48.2318 54.0639 39.1129 63.3253 37.3556 64.4177C35.4083 65.605 26.4319 66.8399 23.3448 68.0747C22.2049 68.5497 21.4925 66.7924 22.6799 66.3174Z" fill="#263357"/>
<path d="M14.7483 74.5815L23.2973 70.212L12.801 49.6944L8.85898 51.6892C7.71912 52.2591 6.86423 50.5493 8.00409 49.9794L12.801 47.5097C13.276 47.2722 13.8459 47.4622 14.0834 47.9371L25.4345 70.1645C25.672 70.6394 25.482 71.2094 25.0071 71.4468L15.6032 76.2913C14.5108 76.8612 13.6084 75.1514 14.7483 74.5815Z" fill="#263357"/>
<path d="M17.8829 71.1145C15.5556 71.7794 14.5583 68.2174 16.8855 67.5524C19.2602 66.935 20.2576 70.4496 17.8829 71.1145Z" fill="#263357"/>
<path d="M67.0871 18.0631V25.8997C67.0871 26.4696 66.6121 26.9445 66.0422 26.9445H61.0553C60.4854 26.9445 60.0104 26.4696 60.0104 25.8997V18.0631C60.0104 17.4932 60.4854 17.0182 61.0553 17.0182H66.0422C66.6121 17.0182 67.0871 17.4932 67.0871 18.0631Z" fill="#90CEF1"/>
</svg>
