<svg width="80" height="80" viewBox="0 0 80 80" fill="none" xmlns="http://www.w3.org/2000/svg">
<path d="M27.8603 21.8649C25.2174 19.9966 23.577 17.3082 23.577 14.3919C23.577 8.65054 29.7741 4.00275 37.4293 4.00275C45.0845 4.00275 51.2815 8.65054 51.2815 14.3919C51.2815 20.1333 45.0845 24.7811 37.4293 24.7811C35.9256 24.7811 34.513 24.5989 33.146 24.2799C32.5992 24.9178 31.5968 25.8747 30.0931 26.6494C28.7261 27.3784 27.4502 27.6518 26.63 27.743C27.0401 27.0595 27.6325 25.9203 27.8603 24.4166C27.997 23.3686 27.9514 22.5028 27.8603 21.8649Z" fill="#169AD7"/>
<path d="M62.7643 77.0003C63.318 77.0003 63.7668 76.5515 63.7668 75.9978C63.7668 75.4442 63.318 74.9954 62.7643 74.9954C62.2107 74.9954 61.7619 75.4442 61.7619 75.9978C61.7619 76.5515 62.2107 77.0003 62.7643 77.0003Z" fill="#263357"/>
<path d="M60.0303 75.0867H13.5524C13.0512 75.0867 12.6411 75.4968 12.6411 75.9981C12.6411 76.4993 13.0512 76.9094 13.5524 76.9094H60.0303C60.5316 76.9094 60.9417 76.4993 60.9417 75.9981C60.9417 75.4968 60.5316 75.0867 60.0303 75.0867Z" fill="#263357"/>
<path d="M23.0303 33.2108C23.7138 31.5249 23.2581 29.9756 23.0303 29.4288C22.848 28.9731 22.3468 28.7453 21.8911 28.882C20.8886 29.201 19.9317 29.2921 18.9748 29.201C18.0179 29.1098 17.4256 28.8364 16.7876 28.5175C16.0586 28.1529 15.2384 27.7884 13.9169 27.7428C12.0031 27.6517 10.4083 28.1529 9.13244 29.1554C7.81101 30.2034 7.30976 31.5249 7.12749 31.9805C6.1706 34.4411 6.89967 36.6739 7.21863 37.5397C7.30977 37.7219 7.40089 37.8586 7.58316 37.9498C7.62873 38.8155 8.03883 39.6813 8.58563 40.3192V45.3771C8.58563 45.8783 8.99573 46.2884 9.49696 46.2884C9.9982 46.2884 10.4083 45.8783 10.4083 45.3771V41.4584C10.8184 41.5495 11.2285 41.6406 11.6386 41.6406C11.912 41.6406 12.1398 41.5495 12.2765 41.3672C12.4588 41.185 12.5499 40.9571 12.5499 40.7293C12.5499 40.2281 12.1398 39.818 11.6386 39.818C11.3196 39.818 10.6817 39.7268 10.1805 39.3167C9.63366 38.8155 9.178 37.9497 9.49696 37.3574C9.54253 37.2663 9.72481 36.9473 9.99821 36.9017C10.3627 36.8106 11.1374 37.3118 11.5019 38.3599C11.6386 38.7244 12.0031 38.9978 12.4132 38.9978C12.8233 38.9978 13.1423 38.6788 13.2334 38.2687L13.5524 36.9473C13.6435 36.4916 14.0536 36.2182 14.5093 36.3094C15.1472 36.4461 15.7852 36.5372 16.4231 36.5372C17.38 36.5372 18.2458 36.4005 19.0204 36.1727C19.066 36.1727 19.1115 36.1727 19.1571 36.1727C19.2482 36.1727 19.5672 36.0815 19.9773 35.9448C20.2963 37.7219 20.3874 39.5446 20.2963 41.3672C20.2051 42.5975 20.0684 43.2355 19.8406 44.1012C19.795 44.2835 19.7495 44.4658 19.7039 44.648C19.6583 44.9214 19.4305 45.1493 19.2027 45.2404C18.6559 45.4227 18.1546 45.4682 17.6078 45.4227C15.8763 45.286 14.7827 44.1012 14.4637 43.7367C14.1448 43.3266 13.598 43.281 13.1879 43.6C12.7778 43.919 12.7322 44.5113 13.0512 44.8759C13.4613 45.3771 14.4637 46.4707 16.1041 46.9719V47.9744C16.1041 48.4756 16.5142 48.8857 17.0155 48.8857C17.5167 48.8857 17.9268 48.4756 17.9268 47.9744V47.2909C18.5647 47.2909 19.1571 47.1998 19.7495 47.0175C20.6152 46.7441 21.2531 46.015 21.481 45.1037C21.5265 44.9214 21.5721 44.7392 21.6177 44.5569C21.8455 43.6456 22.0278 42.8709 22.1189 41.5039C22.2556 39.3168 22.0734 37.1751 21.6633 35.0335C22.2101 34.5778 22.7113 33.9855 23.0303 33.2108ZM21.3899 32.4818C21.2076 32.983 20.8886 33.3475 20.5696 33.6209C20.5696 33.6209 20.5241 33.6209 20.5241 33.6665C19.6583 34.1677 18.2913 34.7601 16.5598 34.7601H16.5142C16.013 34.7601 15.4662 34.7145 14.965 34.5778C13.7802 34.35 12.5955 34.8968 12.0943 35.9448C11.4108 35.3069 10.545 35.0335 9.7248 35.1702C9.3147 35.2613 8.95017 35.4436 8.67677 35.6714C8.54007 34.8512 8.4945 33.7576 8.9046 32.6185C9.0413 32.2539 9.40584 31.297 10.3627 30.568C11.7297 29.4744 13.3701 29.5199 13.9169 29.5655C14.8283 29.6111 15.3751 29.8389 16.0586 30.2034C16.7876 30.5224 17.5623 30.9325 18.8381 31.0692C19.7495 31.1603 20.6608 31.1148 21.6177 30.9325C21.6177 31.297 21.6177 31.8894 21.3899 32.4818Z" fill="#263357"/>
<path d="M21.3899 32.4816C21.2076 32.9828 20.8886 33.3473 20.5696 33.6207C20.5696 33.6207 20.5241 33.6207 20.5241 33.6663C19.6583 34.1675 18.2913 34.7599 16.5598 34.7599H16.5142C16.013 34.7599 15.4662 34.7143 14.9649 34.5776C13.7802 34.3498 12.5955 34.8966 12.0943 35.9446C11.4108 35.3067 10.545 35.0333 9.72478 35.17C9.31468 35.2611 8.95016 35.4434 8.67676 35.6712C8.54006 34.851 8.49449 33.7574 8.90459 32.6183C9.04129 32.2537 9.40583 31.2968 10.3627 30.5678C11.7297 29.4742 13.3701 29.5197 13.9169 29.5653C14.8283 29.6109 15.3751 29.8387 16.0586 30.2032C16.7876 30.5222 17.5622 30.9323 18.8381 31.069C19.7494 31.1601 20.6608 31.1146 21.6177 30.9323C21.6177 31.2968 21.6177 31.8892 21.3899 32.4816Z" fill="#90CEF1"/>
<path d="M72.7434 31.9349C72.5156 31.3425 71.9232 30.1578 70.7841 29.1553C67.8222 26.558 62.9922 26.8314 59.7569 28.4718C58.7089 29.0186 57.7976 29.7021 56.9318 30.5223C56.7496 30.7046 56.6584 30.978 56.6584 31.2514C56.704 31.8438 56.8862 32.4361 57.1141 33.0285C57.3419 33.6209 57.7065 34.2132 58.1166 34.7145C58.1621 34.8056 58.1621 34.8512 58.2077 34.9423C57.752 37.1295 57.6153 39.3167 57.752 41.5039C57.8432 42.8709 58.0254 43.6455 58.2532 44.5569C58.2988 44.7391 58.3444 44.9214 58.3899 45.1037C58.6178 46.015 59.2557 46.7441 60.1215 47.0175C60.7139 47.1997 61.3518 47.2908 61.9442 47.2908V48.0199C61.9442 48.5211 62.3543 48.9312 62.8555 48.9312C63.3567 48.9312 63.7668 48.5211 63.7668 48.0199V47.0175C65.4528 46.4707 66.4552 45.3315 66.8198 44.9214C67.1387 44.5113 67.0932 43.9645 66.6831 43.6455C66.273 43.3266 65.7262 43.4177 65.4072 43.7822C65.1338 44.1468 64.0402 45.3315 62.2631 45.4682C61.7163 45.5138 61.2151 45.4682 60.6683 45.2859C60.3949 45.1948 60.2126 44.967 60.1671 44.6936C60.1215 44.5113 60.0759 44.329 60.0304 44.1468C59.8025 43.281 59.6658 42.6431 59.5747 41.4128C59.4836 39.5901 59.5747 37.7219 59.8937 35.8992C60.8506 36.2637 62.0809 36.5827 63.4479 36.5827C64.0858 36.5827 64.7237 36.4916 65.3617 36.3549C65.8173 36.2637 66.2274 36.5371 66.3185 36.9928L66.6375 38.3142C66.7287 38.7243 67.0476 38.9977 67.4577 39.0433C67.8678 39.0433 68.2323 38.8155 68.369 38.4054C68.7336 37.3573 69.4626 36.9017 69.8727 36.9472C70.1006 36.9928 70.3284 37.2662 70.374 37.4029C70.6474 37.9497 70.2373 38.861 69.6905 39.3623C69.1893 39.7724 68.5513 39.8635 68.2323 39.8635C67.7311 39.8635 67.321 40.2736 67.321 40.7748C67.321 41.2761 67.7311 41.6862 68.2323 41.6862C68.6424 41.6862 69.0526 41.595 69.4627 41.5039V45.4226C69.4627 45.9239 69.8728 46.334 70.374 46.334C70.8752 46.334 71.2853 45.9239 71.2853 45.4226V40.2736C71.8321 39.6357 72.2422 38.7699 72.2878 37.9041C72.4245 37.813 72.5612 37.6763 72.6523 37.494C73.0168 36.6738 73.7003 34.3955 72.7434 31.9349ZM71.2853 35.6714C71.0119 35.4435 70.6474 35.2157 70.2373 35.1701C69.4171 34.9879 68.5513 35.3068 67.8678 35.9448C67.321 34.9423 66.1363 34.3499 64.9971 34.5778C64.4959 34.6689 63.9491 34.76 63.4479 34.76C61.853 34.76 60.5772 34.3044 59.7114 33.8031C59.3469 33.393 59.0279 32.9374 58.8001 32.3906C58.7089 32.1172 58.6178 31.8438 58.5267 31.5704C59.1646 31.0236 59.8025 30.5223 60.5316 30.1578C63.22 28.7908 67.1843 28.5174 69.5538 30.5679C70.4651 31.3425 70.8752 32.2994 71.0119 32.664C71.5131 33.7576 71.4676 34.8512 71.2853 35.6714Z" fill="#263357"/>
<path d="M71.2853 35.6713C71.0119 35.4434 70.6474 35.2156 70.2373 35.17C69.4171 34.9878 68.5513 35.3067 67.8678 35.9447C67.321 34.9422 66.1363 34.3498 64.9971 34.5777C64.4959 34.6688 63.9491 34.7599 63.4479 34.7599C61.853 34.7599 60.5772 34.3043 59.7114 33.803C59.3469 33.3929 59.0279 32.9373 58.8001 32.3905C58.7089 32.1171 58.6178 31.8437 58.5267 31.5703C59.1646 31.0235 59.8025 30.5222 60.5316 30.1577C63.22 28.7907 67.1843 28.5173 69.5538 30.5678C70.4651 31.3424 70.8752 32.2993 71.0119 32.6639C71.5131 33.7575 71.4676 34.8511 71.2853 35.6713Z" fill="#90CEF1"/>
<path d="M75.0674 60.2774C74.475 55.9485 73.2902 51.7108 71.6043 47.6554C71.5131 47.4276 71.2853 47.2453 71.0575 47.1542C70.8297 47.063 70.5563 47.1086 70.3284 47.2453C69.2804 47.8832 68.1412 48.3845 66.9565 48.749C65.6806 49.1591 64.3592 49.3414 63.0378 49.3869C62.7188 49.3869 62.3998 49.5692 62.2631 49.8882C60.805 52.6677 59.6658 55.6296 58.7545 58.5914C58.1166 60.6875 57.6153 62.8291 57.2964 65.0163H54.6079H52.603H51.8739C51.555 65.0163 51.2816 65.1985 51.0993 65.4264L49.5501 65.153L51.1449 63.1481C51.4639 62.738 51.3727 62.1912 51.0082 61.8722C50.5981 61.5532 50.0513 61.6444 49.7323 62.0089L47.4996 64.7884L47.3629 64.7429C46.406 64.5606 45.4035 64.9707 44.8567 65.7453L43.6264 67.3857C43.1707 67.9325 43.034 68.6616 43.1251 69.3451C43.1707 69.6185 43.2618 69.8463 43.353 70.0742L42.3505 71.35H39.9811C40.0722 71.1222 40.0722 70.9399 40.0722 70.7121C40.0722 69.6641 39.3431 68.7983 38.3406 68.5705L34.7409 67.7958L35.1966 66.9756C35.5611 66.3833 35.3788 65.6086 34.832 65.153C34.2397 64.6517 33.4194 64.515 32.6448 64.6973L30.7766 65.0163C30.5943 65.0618 30.4121 65.1074 30.2298 65.153L28.9995 65.4719C28.8628 65.1985 28.5438 64.9707 28.1793 64.9707H27.4502H25.4453H22.7569C22.3923 62.7835 21.9367 60.6419 21.2987 58.5458C20.3874 55.5384 19.2027 52.6222 17.7901 49.8426C17.6534 49.5236 17.3344 49.3414 17.0155 49.3414C15.694 49.2958 14.3726 49.068 13.0968 48.7034C11.912 48.3389 10.7728 47.8377 9.72481 47.1997C9.49698 47.063 9.22359 47.0175 8.99575 47.1086C8.72235 47.1997 8.54008 47.382 8.44895 47.6098C6.71742 51.6197 5.53268 55.8574 4.94031 60.2318C4.39351 64.2416 4.34794 68.3426 4.84917 72.3981C4.89474 72.8537 5.30484 73.2183 5.76051 73.2183H6.3529H17.6078H22.5746H25.4909H27.4958H28.2249H31.6424H31.7335H47.9096H52.603H54.6079H57.5242H62.491H68.2779H74.2927C74.7484 73.2183 75.1585 72.8537 75.2041 72.3981C75.6597 68.4338 75.6142 64.3328 75.0674 60.2774ZM24.4884 71.4412H17.5167C13.8258 71.4412 10.8184 68.4338 10.8184 64.7429V57.7256C10.8184 57.2244 10.4083 56.8143 9.90709 56.8143C9.40585 56.8143 8.99575 57.2244 8.99575 57.7256V64.7429C8.99575 67.4769 10.2716 69.8919 12.2766 71.4412H6.48959C6.12506 67.7958 6.17061 64.1505 6.67184 60.5508C7.17307 56.7232 8.17554 52.9411 9.63367 49.3869C10.545 49.8882 11.5019 50.2527 12.5044 50.5717C13.7347 50.9362 15.0561 51.2096 16.332 51.2552C17.6078 53.8069 18.6559 56.4953 19.4761 59.1838C20.0684 61.0976 20.5241 63.1025 20.8431 65.0618H19.8406C18.3825 65.0618 17.1977 63.2847 17.1977 61.8266V56.1308C17.1977 55.6296 16.7876 55.2195 16.2864 55.2195C15.7852 55.2195 15.3751 55.6296 15.3751 56.1308V61.8266C15.3751 64.1961 17.2889 66.8845 19.8406 66.8845H24.4884V71.4412ZM27.1313 71.4412H26.3111V66.8845H27.1313V71.4412ZM37.8394 71.0766L31.5968 71.4412L28.9995 71.3045V67.4313L30.5943 67.0212C30.731 66.9756 30.8677 66.9756 31.0044 66.9301L32.9182 66.6111C32.9638 66.6111 33.0094 66.6111 33.0094 66.5655C33.1005 66.52 33.1916 66.52 33.2828 66.5655L32.8271 67.3857C32.5993 67.7958 32.5537 68.3426 32.7815 68.7527C32.9638 69.2084 33.3739 69.5274 33.8751 69.6185L37.885 70.4387C38.0672 70.4843 38.1584 70.621 38.1584 70.8032C38.1584 70.9399 38.0217 71.0766 37.8394 71.0766ZM50.9171 71.4412H47.8641C47.6818 71.4412 47.454 71.3956 47.3173 71.2589C46.7705 70.8944 45.9503 70.2564 45.2212 69.7096C45.039 69.5729 44.9478 69.3907 44.9023 69.1628C44.8567 68.935 44.9478 68.7527 45.0389 68.5705L46.2692 66.9301C46.3148 66.8845 46.406 66.7934 46.4515 66.7478C46.4971 66.9301 46.5882 67.1123 46.7705 67.2035C46.9527 67.3402 47.135 67.3857 47.3173 67.3857C47.5907 67.3857 47.8641 67.249 48.0464 67.0212L48.2742 66.7478L50.9626 67.2035V71.4412H50.9171ZM53.651 71.4412H52.7397V66.8845H53.651V71.4412ZM73.4269 71.4412H68.1868H67.6856C69.6905 69.8919 70.9664 67.4769 70.9664 64.7429V57.7256C70.9664 57.2244 70.5563 56.8143 70.055 56.8143C69.5538 56.8143 69.1437 57.2244 69.1437 57.7256V64.7429C69.1437 68.4338 66.1363 71.4412 62.4454 71.4412H55.4737V66.8845H60.1215C62.6732 66.8845 64.587 64.1961 64.587 61.8266V56.1308C64.587 55.6296 64.1769 55.2195 63.6757 55.2195C63.1745 55.2195 62.7644 55.6296 62.7644 56.1308V61.8266C62.7644 63.2847 61.5796 65.0618 60.1215 65.0618H59.119C59.438 63.0569 59.8937 61.0976 60.486 59.1838C61.3062 56.4498 62.3543 53.8069 63.6301 51.2552C64.9516 51.164 66.2274 50.9362 67.4577 50.5717C68.4602 50.2527 69.4171 49.8882 70.3284 49.3869C71.7866 52.9867 72.789 56.7232 73.2903 60.5508C73.7459 64.1505 73.7915 67.7958 73.4269 71.4412Z" fill="#263357"/>
<path d="M51.965 61.0065C52.4663 61.052 52.9219 60.6875 52.9675 60.1863C53.1953 57.9991 53.0131 57.0878 51.9195 54.5816C51.4638 53.5336 50.5069 51.3919 48.1374 49.9794C47.2261 49.4326 46.1781 49.0225 45.0845 48.8402C44.8111 48.7946 44.4921 48.8858 44.3099 49.068C44.082 49.2959 43.9909 49.5693 44.0364 49.8427C44.0364 49.9338 44.0364 50.0249 44.0364 50.1616C44.0364 51.5286 42.0771 52.9412 40.9835 53.5336C39.7988 52.8956 37.6571 51.4831 37.6571 50.1616C37.6571 50.0249 37.6571 49.9338 37.6571 49.8427C37.7027 49.5693 37.6116 49.2503 37.3837 49.068C37.1559 48.8858 36.8825 48.7946 36.6091 48.8402C35.4699 49.0225 34.4674 49.4326 33.5561 49.9794C31.2322 51.4375 30.2298 53.5791 29.7741 54.5816C28.4071 57.6801 28.4982 58.4092 28.9539 61.9178L28.9994 62.3735C29.045 62.8292 29.4551 63.1481 29.9108 63.1481C29.9563 63.1481 30.0019 63.1481 30.0475 63.1481C30.5487 63.1026 30.9132 62.6469 30.8221 62.1457L30.7766 61.6444C30.3209 58.1814 30.2753 57.908 31.4601 55.2651C31.8702 54.3538 32.6448 52.6222 34.513 51.4375C34.9231 51.1641 35.4243 50.9363 35.9256 50.7996C36.5179 53.3969 40.2089 55.174 40.6645 55.3562C40.8924 55.4474 41.2113 55.4474 41.4392 55.3562C41.8493 55.1284 45.2667 53.3969 45.8135 50.7996C46.3148 50.9818 46.7704 51.1641 47.2261 51.4375C49.0943 52.5767 49.869 54.3082 50.2791 55.2195C51.236 57.4067 51.3727 58.0447 51.1904 59.8673C51.1448 60.5053 51.4638 60.9609 51.965 61.0065Z" fill="#263357"/>
<path d="M47.7274 33.3021C47.1806 32.4819 46.5426 31.8439 45.8591 31.3883C45.768 30.2035 45.2668 29.1099 44.401 28.2442C43.4441 27.2873 42.1682 26.786 40.8468 26.786C39.5254 26.786 38.2495 27.2873 37.2926 28.2442C36.4269 29.1099 35.9256 30.2035 35.8345 31.3883C35.151 31.8895 34.5131 32.5274 33.9663 33.3021C32.2803 35.8082 32.1436 39.089 33.5562 41.8686C34.1941 46.1063 37.1104 49.1593 40.4367 49.1593H41.1658C44.4921 49.1593 47.4084 46.0607 48.0464 41.8686C49.5501 39.089 49.4134 35.8538 47.7274 33.3021ZM38.6141 29.5656C39.2064 28.9732 40.0266 28.6087 40.8468 28.6087C41.667 28.6087 42.4872 28.9277 43.0796 29.5656C43.2619 29.7479 43.4441 29.9757 43.5808 30.2035C42.1682 29.7023 40.9835 29.6567 40.8924 29.6567H40.8013H40.7557C40.6646 29.6567 39.4798 29.7023 38.0673 30.2035C38.2495 29.9757 38.4318 29.7479 38.6141 29.5656ZM46.3148 41.5952C46.3148 41.6408 46.3148 41.6863 46.3148 41.7319C45.768 45.0127 43.672 47.3822 41.2569 47.3822H40.5279C38.1128 47.3822 36.0168 45.0127 35.47 41.7775V41.7319C35.47 41.6408 35.47 41.5952 35.47 41.5496C35.4244 40.9573 35.4244 38.4511 37.3382 36.8563C38.2951 36.0361 39.5254 35.626 40.9379 35.626C42.3505 35.626 43.5808 36.0361 44.5377 36.8563C46.4971 38.4967 46.3148 41.2762 46.3148 41.5952ZM45.6313 35.3526C44.3554 34.259 42.6695 33.6666 40.8468 33.6666C39.0241 33.6666 37.3837 34.259 36.0623 35.3526C35.3332 35.9905 34.832 36.674 34.4675 37.3575C34.5586 36.3095 34.9232 35.2614 35.5155 34.3045C37.3838 31.525 40.6646 31.4338 40.8013 31.4338V30.5225L40.8468 31.4338H40.8924C41.0291 31.4338 44.3099 31.4794 46.1781 34.3045C46.816 35.2159 47.135 36.2639 47.2261 37.3575C46.8616 36.674 46.3604 35.9905 45.6313 35.3526Z" fill="#263357"/>
<path d="M43.6264 30.2034C42.2138 29.7022 41.0291 29.6566 40.9379 29.6566H40.8468H40.8012C40.7101 29.6566 39.5254 29.7022 38.1128 30.2034C38.2495 29.9756 38.4318 29.7478 38.6141 29.5655C39.2064 28.9731 40.0266 28.6086 40.8468 28.6086C41.667 28.6086 42.4872 28.9276 43.0796 29.5655C43.3074 29.7478 43.4897 29.9756 43.6264 30.2034Z" fill="#90CEF1"/>
<path d="M47.2717 37.3574C46.9072 36.6739 46.4059 35.9448 45.6769 35.3524C44.401 34.2588 42.715 33.6665 40.8924 33.6665C39.0697 33.6665 37.4293 34.2588 36.1079 35.3524C35.3788 35.9904 34.8776 36.6739 34.513 37.3574C34.6042 36.3093 34.9687 35.2613 35.5611 34.3044C37.4293 31.5248 40.7101 31.4337 40.8468 31.4337V30.5224L40.8924 31.4337H40.9379C41.0746 31.4337 44.3554 31.4793 46.2237 34.3044C46.816 35.2613 47.1806 36.3093 47.2717 37.3574Z" fill="#90CEF1"/>
<path d="M33.1461 57.9079V62.3278C33.1461 62.829 33.5562 63.2391 34.0574 63.2391C34.5586 63.2391 34.9687 62.829 34.9687 62.3278V57.9079C34.9687 57.4066 34.5586 56.9965 34.0574 56.9965C33.5562 56.9965 33.1461 57.3611 33.1461 57.9079Z" fill="#263357"/>
<path d="M47.7274 56.9965C47.2261 56.9965 46.816 57.4066 46.816 57.9079V61.5532C46.816 62.0544 47.2261 62.4645 47.7274 62.4645C48.2286 62.4645 48.6387 62.0544 48.6387 61.5532V57.9079C48.6387 57.3611 48.2286 56.9965 47.7274 56.9965Z" fill="#263357"/>
<path d="M26.9946 22.366C27.0401 23.0039 27.0401 23.6419 26.949 24.2342C26.8123 25.2823 26.4478 26.2847 25.8554 27.2416C25.6731 27.5606 25.6731 27.9251 25.8554 28.1985C26.0377 28.4719 26.3111 28.6086 26.63 28.6086C26.6756 28.6086 26.7212 28.6086 26.7667 28.6086C28.0882 28.4264 29.364 28.0163 30.5032 27.4239C31.5968 26.8771 32.5992 26.148 33.4194 25.2367C34.7409 25.5101 36.0623 25.6468 37.3837 25.6468C39.3431 25.6468 41.2113 25.3734 42.9429 24.8266C43.8542 24.9633 44.7655 25.0544 45.7224 25.0544C46.9072 25.0544 48.0463 24.9177 49.1855 24.6899C49.9146 25.4645 50.7803 26.0569 51.7372 26.5581C52.7853 27.1049 53.9244 27.4695 55.0636 27.6517C55.1092 27.6517 55.1547 27.6517 55.2003 27.6517C55.5193 27.6517 55.7927 27.515 55.9749 27.2416C56.1572 26.9227 56.1572 26.5581 55.9749 26.2392C55.4737 25.419 55.1547 24.5532 55.018 23.6419C54.9269 23.0951 54.9269 22.5938 54.9725 22.047C57.4331 20.1332 58.8001 17.6271 58.8001 14.9386C58.8001 9.42508 52.922 4.91398 45.6769 4.91398C45.6313 4.91398 45.6313 4.91398 45.5857 4.91398C43.2163 3.72925 40.4367 3.00018 37.3837 3.00018C29.2273 3.00018 22.6201 8.05808 22.6201 14.3007C22.6657 17.3992 24.1694 20.2244 26.9946 22.366ZM57.023 15.0298C57.023 17.217 55.8382 19.313 53.6055 20.8623C53.4232 20.999 53.2865 21.2268 53.2409 21.4547C53.1042 22.2749 53.1042 23.0951 53.2409 23.9153C53.3321 24.4165 53.4232 24.9177 53.6055 25.3734C53.2409 25.2367 52.922 25.1 52.603 24.9177C51.6917 24.4621 50.8715 23.8241 50.188 23.0495C50.0057 22.8672 49.7779 22.7305 49.5045 22.7305C49.4133 22.7305 49.3678 22.7305 49.2766 22.7305C48.4109 22.9584 47.4995 23.0951 46.5882 23.1406C50.0057 21.0901 52.1929 17.9005 52.1929 14.3007C52.1929 11.5211 50.8715 9.01498 48.7298 7.05561C53.5143 8.05808 57.023 11.2477 57.023 15.0298ZM37.4293 4.91398C44.5833 4.91398 50.3702 9.15168 50.3702 14.3918C50.3702 19.632 44.5377 23.8697 37.4293 23.8697C36.0623 23.8697 34.6953 23.6874 33.3739 23.3685C33.0549 23.2773 32.6904 23.414 32.4626 23.6419C31.6879 24.5076 30.731 25.2367 29.683 25.7835C29.2273 26.0113 28.7717 26.1936 28.2704 26.3759C28.4983 25.7835 28.635 25.1456 28.7261 24.5076C28.8628 23.5963 28.8628 22.6394 28.7261 21.7281C28.6805 21.5002 28.5438 21.2724 28.3616 21.1357C25.8554 19.313 24.4428 16.9436 24.4428 14.3918C24.4884 9.15168 30.2753 4.91398 37.4293 4.91398Z" fill="#263357"/>
<path d="M32.2347 16.1688C33.0094 16.1688 33.6017 15.5308 33.6017 14.8018C33.6017 14.0271 32.9638 13.4348 32.2347 13.4348C31.5057 13.4348 30.8677 14.0727 30.8677 14.8018C30.8677 15.5308 31.4601 16.1688 32.2347 16.1688Z" fill="#263357"/>
<path d="M37.566 16.1688C38.3406 16.1688 38.933 15.5308 38.933 14.8018C38.933 14.0271 38.2951 13.4348 37.566 13.4348C36.7914 13.4348 36.199 14.0727 36.199 14.8018C36.199 15.5308 36.7914 16.1688 37.566 16.1688Z" fill="#263357"/>
<path d="M42.7606 16.1688C43.5352 16.1688 44.1276 15.5308 44.1276 14.8018C44.1276 14.0271 43.4897 13.4348 42.7606 13.4348C41.986 13.4348 41.3936 14.0727 41.3936 14.8018C41.348 15.5308 41.986 16.1688 42.7606 16.1688Z" fill="#263357"/>
</svg>
