<svg width="80" height="80" viewBox="0 0 80 80" fill="none" xmlns="http://www.w3.org/2000/svg">
<path d="M73.241 36.2184C73.1553 36.5612 73.2839 36.9469 73.5838 37.1612C74.0981 37.504 74.3123 38.1467 74.0124 38.7895C73.8409 39.1751 73.4124 39.4322 72.9839 39.4322C72.684 39.4751 72.4697 39.6037 72.2983 39.8608C72.1698 40.1179 72.1269 40.4178 72.2555 40.6749C72.3412 40.8463 72.384 41.0177 72.384 41.1891C72.384 41.8319 71.9126 42.3461 71.2699 42.4318C70.9699 42.4747 70.7128 42.6889 70.6271 42.9889C70.4557 43.5031 69.9844 43.8031 69.513 43.8459C69.2987 43.8459 69.0845 43.7602 68.9131 43.6745C69.513 42.5175 69.9415 41.1891 70.1986 39.7322C70.1986 39.6894 70.2415 39.6894 70.2415 39.6465C70.2843 39.6037 70.2843 39.6037 70.3272 39.5608C70.67 39.3037 71.2699 38.8752 71.5698 37.6325C72.0412 35.7471 71.4841 34.89 70.9271 34.5472C70.5414 34.2901 70.0272 34.2044 69.5558 34.333C69.4701 34.2473 69.4273 34.1616 69.3844 34.0759C68.9131 33.2189 69.4701 32.1476 69.513 32.0619C69.6844 31.7619 69.6415 31.4191 69.4273 31.1192C69.213 30.8621 68.8702 30.7335 68.5703 30.8192C68.3989 30.8621 67.8847 30.9478 67.4133 30.6907C66.5991 30.2621 66.5134 29.2337 66.5134 29.2337C66.4706 28.8052 66.1278 28.4624 65.6993 28.4196C65.2707 28.4196 64.8851 28.7195 64.7994 29.148C64.7137 29.6194 64.3709 30.005 63.8995 30.0907C63.4282 30.1764 62.9139 29.9193 62.6997 29.448C62.5711 29.1909 62.3569 29.0195 62.0998 28.9766C61.8427 28.9338 61.5427 29.0195 61.3713 29.1909C61.3285 29.2337 60.6428 29.8336 59.7858 29.6622C59.2288 29.5337 58.886 29.148 58.7574 29.0195C58.5432 28.7195 58.1146 28.591 57.7718 28.7195C57.429 28.8481 57.1719 29.1909 57.2148 29.5765C57.2148 29.5765 57.2576 30.5193 56.572 30.9478C56.1863 31.2049 55.715 31.162 55.5436 31.1192C55.2436 31.0763 54.9437 31.162 54.7723 31.4191C54.558 31.6334 54.5152 31.9762 54.6009 32.2333C54.6437 32.4047 54.8151 33.0475 54.5152 33.6902C54.3866 33.9902 54.1723 34.2044 53.9581 34.333C53.4867 34.1616 52.9297 34.2044 52.5012 34.5044C52.2441 34.6758 52.0298 34.9329 51.8584 35.3186C51.7727 35.5757 51.687 35.8756 51.687 36.3041C51.6441 33.1332 50.0587 29.8765 49.4587 28.8052C49.5016 28.8909 49.5445 28.9338 49.5873 29.0195C49.6302 29.0623 49.6301 29.1052 49.673 29.1909C49.8444 29.5765 50.3586 29.7051 50.7014 29.4908C50.7871 29.4051 50.8728 29.3194 50.9157 29.1909C51.0442 28.8481 51.0442 28.5053 50.7871 28.2053C50.6586 28.0339 50.4443 27.7768 50.4443 27.3911C50.4443 26.7055 51.0014 26.1484 51.6013 26.1484C51.8155 26.1484 51.9869 26.1913 52.2012 26.3198C52.6297 26.5341 53.1439 26.4056 53.401 25.977C53.5296 25.7199 53.5296 25.3771 53.3582 25.12C53.2296 24.9058 53.1868 24.6915 53.1868 24.4773C53.1868 23.7916 53.7438 23.2346 54.3437 23.2346C54.7294 23.2346 54.9865 23.406 55.1579 23.5774C55.415 23.7916 55.7578 23.8774 56.1006 23.7059C56.4006 23.5774 56.6149 23.2346 56.6149 22.8918C56.6149 22.8918 56.6149 22.8489 56.6149 22.8061C56.6577 22.1633 57.1719 21.6062 57.8147 21.6062C58.2432 21.6062 58.6288 21.8633 58.8431 22.249C59.0574 22.5918 59.443 22.7632 59.8287 22.6347C60.2143 22.549 60.4714 22.1633 60.4286 21.7777C60.4286 21.7348 60.4286 21.7348 60.4286 21.6919C60.4286 21.0492 60.9856 20.4921 61.6284 20.4921H61.7141H61.8427H61.8855C62.5283 20.4921 63.0854 21.0492 63.0854 21.6919C63.0854 21.7348 63.0854 21.7348 63.0854 21.7777C63.0854 22.249 63.4282 22.6347 63.8995 22.6775C64.2423 22.6775 64.5423 22.5061 64.7137 22.2062C64.9279 21.8634 65.3136 21.6062 65.6993 21.6062C66.342 21.6062 66.8991 22.1633 66.8991 22.8061V22.8489C66.8991 23.1917 67.0705 23.4917 67.4133 23.6631C67.7561 23.8345 68.0989 23.7488 68.356 23.5345C68.5274 23.406 68.7845 23.1917 69.1273 23.1917C69.8129 23.1917 70.3272 23.7488 70.3272 24.4344C70.3272 24.6487 70.2843 24.8629 70.1558 25.0772C69.9415 25.42 70.0272 25.8913 70.3272 26.1913C70.6271 26.4484 71.0128 26.4056 71.3556 26.2342C71.527 26.1485 71.6984 26.1056 71.8698 26.1056C72.5554 26.1056 73.0696 26.6627 73.0696 27.3483C73.0696 27.7339 72.8982 27.991 72.7268 28.1624C72.4269 28.5053 72.4269 28.9766 72.7268 29.3194C72.9411 29.5337 73.241 29.6194 73.4981 29.5765H73.5838C74.2266 29.6194 74.7408 30.1764 74.7408 30.8192C74.7408 31.2049 74.5694 31.5477 74.2694 31.8048C74.0552 31.9762 73.9266 32.2761 73.9266 32.5761C73.9695 32.876 74.1409 33.1332 74.398 33.2617C74.8265 33.476 75.0836 33.9045 75.0836 34.3758C75.0836 35.0186 74.6123 35.5328 73.9695 35.6185C73.6695 35.6185 73.3696 35.8756 73.241 36.2184Z" fill="#90CEF1"/>
<path d="M54.6437 43.7174C54.5151 43.8031 54.3437 43.846 54.1723 43.846C53.6581 43.846 53.1867 43.5032 53.0153 42.989C52.8868 42.689 52.6297 42.4748 52.3297 42.4319C52.2869 42.4319 52.2012 42.4319 52.1583 42.3891C51.9441 42.3462 51.6869 42.132 51.6869 42.132C51.3441 41.832 50.8728 41.7891 50.53 42.0034C50.6157 41.9177 51.8155 40.1608 51.7726 36.3899C51.7726 36.7327 51.8155 37.1612 51.9441 37.6755C52.244 38.9181 52.8439 39.3466 53.2296 39.6037C53.2724 39.6037 53.2724 39.6466 53.3153 39.6466C53.5295 41.1464 54.0009 42.5176 54.6437 43.7174Z" fill="#90CEF1"/>
<path d="M57.0433 64.3285C56.572 57.9437 51.8155 52.8016 45.6021 51.6874C45.6021 51.6874 45.6021 51.6874 45.5593 51.6874C45.4736 51.6874 45.4307 51.6446 45.345 51.6446L38.8745 55.0298V54.13C36.3892 54.13 34.1609 53.1872 32.4469 51.6874C32.404 51.6874 32.3183 51.7303 32.2326 51.7303C31.4613 51.8589 30.69 52.0731 29.9615 52.3302C25.9764 53.7443 22.8054 57.001 21.4342 61.0289C21.0485 62.1431 20.8343 63.3001 20.7486 64.4999C25.5907 68.6564 31.8898 71.1846 38.746 71.1846H38.7888C45.8592 71.1846 52.2012 68.6136 57.0433 64.3285Z" fill="#169AD7"/>
<path d="M11.5356 24.82C12.0563 24.82 12.4783 24.3979 12.4783 23.8772C12.4783 23.3566 12.0563 22.9345 11.5356 22.9345C11.015 22.9345 10.5929 23.3566 10.5929 23.8772C10.5929 24.3979 11.015 24.82 11.5356 24.82Z" fill="#263357"/>
<path d="M57.2148 70.1993C57.7354 70.1993 58.1575 69.7772 58.1575 69.2565C58.1575 68.7359 57.7354 68.3138 57.2148 68.3138C56.6941 68.3138 56.272 68.7359 56.272 69.2565C56.272 69.7772 56.6941 70.1993 57.2148 70.1993Z" fill="#263357"/>
<path d="M29.6187 27.0055C30.1394 27.0055 30.5614 26.5835 30.5614 26.0628C30.5614 25.5422 30.1394 25.1201 29.6187 25.1201C29.0981 25.1201 28.676 25.5422 28.676 26.0628C28.676 26.5835 29.0981 27.0055 29.6187 27.0055Z" fill="#263357"/>
<path d="M37.9747 40.6321C37.9747 40.1607 37.589 39.7751 37.1177 39.7751H35.018C34.5466 39.7751 34.1609 40.1607 34.1609 40.6321C34.1609 41.1034 34.5466 41.4891 35.018 41.4891H37.1177C37.589 41.4891 37.9747 41.1034 37.9747 40.6321Z" fill="#263357"/>
<path d="M43.7596 39.7751H41.6599C41.1885 39.7751 40.8029 40.1607 40.8029 40.6321C40.8029 41.1034 41.1885 41.4891 41.6599 41.4891H43.7596C44.2309 41.4891 44.6166 41.1034 44.6166 40.6321C44.6166 40.1607 44.2309 39.7751 43.7596 39.7751Z" fill="#263357"/>
<path d="M40.9314 46.3312C39.6887 47.2739 38.446 47.2739 37.2033 46.3312C36.8177 46.0312 36.3035 46.1169 36.0035 46.5026C35.7035 46.8883 35.7892 47.4025 36.1749 47.7024C37.0748 48.388 38.1032 48.7737 39.0888 48.7737C40.0743 48.7737 41.1028 48.388 42.0026 47.7024C42.3883 47.4025 42.474 46.8883 42.174 46.5026C41.8312 46.1169 41.317 46.0312 40.9314 46.3312Z" fill="#263357"/>
<path d="M49.8872 35.9613C49.7587 35.8756 49.5873 35.7899 49.4587 35.7471C49.7158 34.333 49.673 32.8332 49.3302 31.4191C49.3302 31.3763 49.3301 31.3763 49.2873 31.3334C48.5588 29.4051 47.4447 27.6483 45.9878 26.1913C43.5024 23.7488 40.7171 22.7632 38.7888 22.3776C38.5317 22.3347 38.2318 22.4204 38.0175 22.5918C37.8032 22.7632 37.7175 23.0632 37.7604 23.3203C37.8032 23.6203 37.8032 23.9631 37.8032 24.263C37.7604 24.2202 37.7175 24.2202 37.6747 24.1773C36.8605 23.7488 36.0892 23.6631 35.575 23.6631H35.4036C35.0608 23.6631 34.718 23.9202 34.6323 24.263C34.5037 24.6058 34.6323 24.9915 34.9322 25.2058C34.9751 25.2058 35.2322 25.4629 35.2322 25.7628C35.0608 25.8057 34.8894 25.8485 34.718 25.8914C32.704 26.4056 31.5042 27.734 30.9471 28.3767C29.7044 29.7908 29.233 31.2477 29.0616 31.7191L29.0188 31.8048C28.5903 33.0475 28.5046 34.4187 28.7617 35.7471C28.5903 35.7899 28.4189 35.8756 28.2475 36.0042C27.6476 36.3899 27.0476 37.3326 27.5619 39.518C27.9047 40.9321 28.5903 41.4034 29.0188 41.7034C29.0616 41.7462 29.1473 41.7891 29.1902 41.8319C29.6187 44.5744 30.69 47.0169 32.1898 48.8166C34.0324 51.0449 36.4749 52.4161 39.1316 52.4161C41.7884 52.4161 44.2309 51.0449 46.0735 48.8166C47.5733 46.974 48.6445 44.5744 49.073 41.8319C49.1159 41.7891 49.1587 41.7462 49.2444 41.7034C49.673 41.4034 50.3586 40.9321 50.6585 39.518C51.087 37.2897 50.4871 36.347 49.8872 35.9613ZM30.6043 32.319L30.6471 32.2333C30.7757 31.8477 31.1613 30.6478 32.1898 29.4909C32.704 28.9338 33.6038 27.9054 35.1036 27.5197C35.3607 27.434 35.6178 27.3911 35.9178 27.3911C36.2177 27.3911 36.432 27.2197 36.6034 26.9626C36.8177 26.577 36.9462 26.1485 36.9462 25.72C37.2033 25.8914 37.4604 26.1056 37.6747 26.3627C37.8461 26.577 38.1461 26.7055 38.446 26.6627C38.746 26.6198 39.0031 26.4056 39.1316 26.1485C39.2602 25.8057 39.3887 25.4629 39.4316 25.12C39.4744 24.8629 39.5173 24.563 39.5601 24.263C41.1456 24.7344 43.0739 25.6343 44.7879 27.3483C46.0306 28.591 47.0591 30.1336 47.659 31.8048C47.7875 32.4047 47.8732 33.0046 47.9161 33.6045C47.9161 33.6045 47.9161 33.5617 47.8732 33.5188C47.359 32.319 46.6305 31.2049 45.6878 30.305C45.4736 30.0908 45.2165 30.0051 44.9165 30.0908C44.6594 30.1336 44.4023 30.305 44.2737 30.5621C43.9309 31.2906 43.4596 31.8905 42.9025 32.3619C41.9169 33.2189 40.5029 33.6902 38.8317 33.6902C36.9034 33.6902 34.8037 33.0903 32.7468 31.9762C32.3612 31.7619 31.8898 31.8905 31.6327 32.2333C31.1185 32.9618 30.69 33.7331 30.39 34.5473C30.3472 34.633 30.3043 34.7615 30.2615 34.8901C30.2615 34.0759 30.3472 33.176 30.6043 32.319ZM48.9016 39.0466C48.7302 39.8179 48.4303 40.0322 48.1303 40.2464C47.8304 40.4607 47.4019 40.7607 47.2733 41.4034C46.8019 44.4887 45.4736 47.0597 43.631 48.7309C42.3026 49.9308 40.7171 50.6164 39.0459 50.6164C37.3747 50.6164 35.7892 49.9308 34.4609 48.7309C32.6183 47.1026 31.2899 44.4887 30.8185 41.4034C30.8185 41.4034 30.8185 41.4034 30.8185 41.3606C30.8185 41.3177 30.7757 41.2749 30.7757 41.232C30.6043 40.675 30.2186 40.375 29.9615 40.2036C29.6616 39.9893 29.4045 39.8179 29.1902 39.0038C28.8902 37.8039 29.1045 37.3754 29.1473 37.2897C29.1473 37.2897 29.1902 37.2897 29.233 37.3326C29.4045 37.6754 29.5759 38.061 29.7901 38.4038C29.9615 38.661 30.2186 38.7895 30.5186 38.7895C30.6043 38.7895 30.6471 38.7895 30.7328 38.7467C31.0756 38.6609 31.3327 38.361 31.3756 37.9753C31.4613 36.9898 31.6755 36.047 32.0612 35.1472C32.2326 34.6758 32.4897 34.2473 32.7468 33.7759C34.8465 34.8044 36.9891 35.3186 38.9602 35.3186C41.0171 35.3186 42.8168 34.7187 44.1452 33.6045C44.5737 33.2189 44.9594 32.7904 45.3022 32.319C45.7307 32.8761 46.0735 33.476 46.3306 34.1188C46.8019 35.2757 47.0162 36.5613 46.9305 37.8039C46.8876 38.1896 47.1447 38.5753 47.5733 38.7038C47.9589 38.7895 48.3874 38.6181 48.5588 38.2753C48.7302 37.9753 48.8588 37.6325 48.9873 37.3326C49.073 37.5897 49.1587 38.061 48.9016 39.0466Z" fill="#263357"/>
<path d="M47.9161 33.6474C47.9161 33.6474 47.9161 33.6045 47.8732 33.5617C47.359 32.3618 46.6305 31.2477 45.6878 30.3478C45.4736 30.1336 45.2165 30.0479 44.9165 30.1336C44.6594 30.1764 44.4023 30.3478 44.2737 30.6049C43.9309 31.3334 43.4596 31.9333 42.9025 32.4047C41.9169 33.2617 40.5029 33.7331 38.8317 33.7331C36.9034 33.7331 34.8037 33.1332 32.7468 32.019C32.3612 31.8048 31.8898 31.9333 31.6327 32.2761C31.1185 33.0046 30.69 33.7759 30.39 34.5901C30.3472 34.6758 30.3043 34.8043 30.2615 34.9329C30.1758 34.0759 30.2615 33.176 30.5614 32.319L30.6043 32.2333C30.7328 31.8476 31.1185 30.6478 32.1469 29.4908C32.6611 28.9338 33.561 27.9053 35.0608 27.5197C35.3179 27.434 35.575 27.3911 35.875 27.3911C36.1749 27.3911 36.3892 27.2197 36.5606 26.9626C36.7748 26.5769 36.9034 26.1484 36.9034 25.7199C37.1605 25.8913 37.4176 26.1056 37.6318 26.3627C37.8032 26.5769 38.1032 26.7055 38.4032 26.6627C38.7031 26.6198 38.9602 26.4055 39.0888 26.1484C39.2173 25.8056 39.3459 25.4628 39.3887 25.12C39.4316 24.8629 39.4744 24.563 39.5173 24.263C41.1028 24.7344 43.0311 25.6342 44.7451 27.3483C45.9878 28.591 47.0162 30.1336 47.6161 31.8048C47.8304 32.4475 47.9161 33.0474 47.9161 33.6474Z" fill="#90CEF1"/>
<path d="M59.2288 39.1324C59.4002 39.1324 59.5287 39.2181 59.5716 39.261C59.9144 39.5609 60.4715 39.5181 60.7714 39.1752C61.0714 38.8324 61.0285 38.2754 60.6857 37.9754C60.5143 37.804 59.9573 37.4184 59.1859 37.4184C58.5003 37.4184 57.9861 37.7612 57.7719 37.9754C57.429 38.2754 57.3862 38.8324 57.6862 39.1752C57.8576 39.3895 58.0718 39.4752 58.3289 39.4752C58.5432 39.4752 58.7146 39.3895 58.886 39.261C58.9717 39.2181 59.0574 39.1324 59.2288 39.1324Z" fill="#263357"/>
<path d="M64.8422 37.3753C64.0709 37.3753 63.5138 37.8038 63.3424 37.9752C62.9996 38.318 62.9996 38.8322 63.3424 39.175C63.6852 39.5178 64.1994 39.5178 64.5422 39.175C64.5422 39.175 64.6708 39.0465 64.8422 39.0465C65.0136 39.0465 65.0993 39.1322 65.1421 39.175C65.3136 39.3464 65.5278 39.4321 65.7421 39.4321C65.9563 39.4321 66.1706 39.3464 66.342 39.175C66.6848 38.8322 66.6848 38.2752 66.342 37.9752C66.1277 37.8038 65.6135 37.4182 64.8422 37.3753Z" fill="#263357"/>
<path d="M63.2567 43.2888C62.2712 44.0601 61.2856 44.0601 60.2572 43.2888C59.8715 42.9888 59.3573 43.0745 59.0573 43.4602C58.7574 43.8458 58.8431 44.3601 59.2287 44.66C60.0001 45.2599 60.8999 45.5599 61.7569 45.5599C62.614 45.5599 63.5138 45.2599 64.2851 44.66C64.6708 44.3601 64.7565 43.8458 64.4566 43.4602C64.1566 43.0745 63.6424 42.9888 63.2567 43.2888Z" fill="#263357"/>
<path d="M66.4277 47.9168H66.342C66.0849 47.9168 65.8706 48.0454 65.6992 48.2168C65.5278 48.3882 65.485 48.6453 65.5278 48.9024C65.7421 50.2308 65.0136 51.4306 64.4137 52.1591C63.3424 53.4446 62.0141 54.1302 61.6712 54.1302C61.0285 54.0873 57.8147 52.0734 57.8147 49.3737C57.8147 49.2023 57.8147 49.0738 57.8575 48.9024C57.9004 48.6453 57.8147 48.3453 57.6004 48.1739C57.3861 47.9596 57.129 47.9168 56.8291 47.9596C54.8579 48.3025 53.0582 49.2023 51.5584 50.445C51.1299 50.8307 51.2156 51.5163 51.687 51.8162C51.9869 51.9876 52.3726 51.9876 52.6725 51.7305C53.6153 50.9164 54.7722 50.2736 56.1006 49.8451C56.4434 53.2303 60.1715 55.8442 61.6712 55.8442C62.6997 55.8442 64.4137 54.773 65.6135 53.4017C66.342 52.5447 67.1562 51.302 67.2419 49.8022C69.3416 50.4022 73.4124 53.0161 73.9695 57.9439C72.9411 58.7581 71.8269 59.4437 70.6699 60.0436V56.787C70.6699 56.3156 70.2843 55.9299 69.8129 55.9299C69.3416 55.9299 68.9559 56.3156 68.9559 56.787V60.8149C66.642 61.7148 64.1995 62.1862 61.6712 62.1862C61.1142 62.1862 60.5143 62.1433 59.9572 62.1005C59.4001 62.0576 58.9716 62.529 59.0573 63.086C59.1002 63.4717 59.443 63.7717 59.8287 63.8145C60.4286 63.8574 61.0713 63.9002 61.6712 63.9002C64.5423 63.9002 67.3704 63.3432 69.9843 62.229C70.07 62.1862 70.1986 62.1433 70.2843 62.1005C72.1269 61.2863 73.8409 60.2579 75.4264 58.9724C75.6407 58.8009 75.7692 58.5438 75.7264 58.2439C75.2122 51.4306 68.9559 47.9168 66.4277 47.9168Z" fill="#263357"/>
<path d="M76.8405 34.3331C76.8405 33.6046 76.5834 32.919 76.0692 32.3619C76.3263 31.8906 76.4977 31.3763 76.4977 30.8621C76.4977 29.6623 75.7692 28.591 74.6979 28.1197C74.7836 27.8626 74.7836 27.6055 74.7836 27.3484C74.7836 25.8057 73.5838 24.5202 72.0412 24.3916C72.0412 22.8061 70.7128 21.4778 69.1273 21.4778C68.8702 21.4778 68.6131 21.5206 68.356 21.6063C67.8846 20.6207 66.8991 19.9351 65.6992 19.8923C65.2279 19.8923 64.7994 20.0208 64.4137 20.2351C63.8995 19.3781 62.9568 18.7782 61.8855 18.7782C61.8426 18.7782 61.8426 18.7782 61.7998 18.7782C61.7569 18.7782 61.7141 18.7782 61.6712 18.7782C60.6 18.821 59.7001 19.3781 59.1859 20.2351C58.8002 20.0208 58.3289 19.8923 57.8575 19.8923C56.7005 19.9351 55.715 20.6207 55.2436 21.6063C54.9865 21.5206 54.7294 21.4778 54.4294 21.4778C52.8439 21.5206 51.5584 22.8061 51.5584 24.3916C50.4871 24.4773 49.5873 25.163 49.1159 26.0628C49.0302 26.2771 48.9445 26.4913 48.9017 26.7056C48.8588 26.9199 48.8159 27.1341 48.8159 27.3484C48.8159 27.4341 48.8159 27.5626 48.8159 27.6912C48.9874 27.9483 49.1159 28.1625 49.2873 28.4196C49.373 28.5482 49.4159 28.6767 49.5016 28.8053C49.5444 28.891 49.5873 28.9338 49.6301 29.0195C49.673 29.0624 49.673 29.1052 49.7158 29.1481C49.8872 29.5338 50.4014 29.6623 50.7442 29.4481C50.8299 29.3624 50.9156 29.2766 50.9585 29.1481C51.087 28.8053 51.0871 28.4625 50.8299 28.1625C50.7014 27.9911 50.4871 27.734 50.4871 27.3484C50.4871 26.6627 51.0442 26.1057 51.6441 26.1057C51.8584 26.1057 52.0298 26.1485 52.244 26.2771C52.6725 26.4913 53.1868 26.3628 53.4439 25.9343C53.5724 25.6772 53.5724 25.3344 53.401 25.0773C53.2725 24.863 53.2296 24.6487 53.2296 24.4345C53.2296 23.7489 53.7867 23.1918 54.3866 23.1918C54.7722 23.1918 55.0293 23.3632 55.2007 23.5346C55.4578 23.7489 55.8007 23.8346 56.1435 23.6632C56.4434 23.5346 56.6577 23.1918 56.6577 22.849C56.6577 22.849 56.6577 22.8062 56.6577 22.7633C56.7005 22.1205 57.2147 21.5635 57.8575 21.5635C58.286 21.5635 58.6717 21.8206 58.8859 22.2062C59.1002 22.5491 59.4858 22.7205 59.8715 22.5919C60.2572 22.5062 60.5143 22.1205 60.4714 21.7349C60.4714 21.692 60.4714 21.692 60.4714 21.6492C60.4714 21.0064 61.0285 20.4494 61.6712 20.4494H61.7569H61.8855H61.9283C62.5711 20.4494 63.1282 21.0064 63.1282 21.6492C63.1282 21.692 63.1282 21.692 63.1282 21.7349C63.1282 22.2062 63.471 22.5919 63.9423 22.6348C64.2852 22.6348 64.5851 22.4633 64.7565 22.1634C64.9708 21.8206 65.3564 21.5635 65.7421 21.5635C66.3848 21.5635 66.9419 22.1205 66.9419 22.7633V22.8062C66.9419 23.149 67.1133 23.4489 67.4561 23.6203C67.7989 23.7917 68.1417 23.706 68.3988 23.4918C68.5702 23.3632 68.8273 23.149 69.1702 23.149C69.8558 23.149 70.37 23.706 70.37 24.3916C70.37 24.6059 70.3271 24.8201 70.1986 25.0344C69.9843 25.3772 70.07 25.8486 70.37 26.1485C70.6699 26.4056 71.0556 26.3628 71.3984 26.1914C71.5698 26.1057 71.7412 26.0628 71.9126 26.0628C72.5982 26.0628 73.1125 26.6199 73.1125 27.3055C73.1125 27.6912 72.941 27.9483 72.7696 28.1197C72.4697 28.4625 72.4697 28.9338 72.7696 29.2767C72.9839 29.4909 73.2839 29.5766 73.541 29.5338H73.6267C74.2694 29.5766 74.7836 30.1337 74.7836 30.7764C74.7836 31.1621 74.6122 31.5049 74.3123 31.762C74.098 31.9334 73.9695 32.2334 73.9695 32.5333C74.0123 32.8333 74.1837 33.0904 74.4408 33.2189C74.8693 33.4332 75.1264 33.8617 75.1264 34.3331C75.1264 34.9758 74.6551 35.49 74.0123 35.5757C73.6695 35.6186 73.3696 35.8757 73.241 36.2185C73.1553 36.5613 73.2839 36.947 73.5838 37.1612C74.098 37.504 74.3123 38.1468 74.0123 38.7896C73.8409 39.1752 73.4124 39.4323 72.9839 39.4323C72.6839 39.4752 72.4697 39.6037 72.2983 39.8608C72.1697 40.1179 72.1269 40.4179 72.2554 40.675C72.3411 40.8464 72.384 41.0178 72.384 41.1892C72.384 41.832 71.9126 42.3462 71.2699 42.4319C70.9699 42.4747 70.7128 42.689 70.6271 42.989C70.4557 43.5032 69.9843 43.8031 69.513 43.846C69.2987 43.846 69.0845 43.7603 68.913 43.6746C69.513 42.5176 69.9415 41.1892 70.1986 39.7323C70.1986 39.6894 70.2414 39.6894 70.2414 39.6466C70.2843 39.6037 70.2843 39.6037 70.3271 39.5609C70.6699 39.3038 71.2699 38.8753 71.5698 37.6326C72.0412 35.7472 71.4841 34.8901 70.927 34.5473C70.5414 34.2902 70.0272 34.2045 69.5558 34.3331C69.4701 34.2474 69.4273 34.1617 69.3844 34.076C68.9131 33.2189 69.4701 32.1477 69.513 32.062C69.6844 31.762 69.6415 31.4192 69.4273 31.1192C69.213 30.8621 68.8702 30.7336 68.5702 30.8193C68.3988 30.8621 67.8846 30.9478 67.4133 30.6907C66.5991 30.2622 66.5134 29.2338 66.5134 29.2338C66.4706 28.8053 66.1277 28.4625 65.6992 28.4196C65.2707 28.4196 64.8851 28.7196 64.7994 29.1481C64.7137 29.6195 64.3709 30.0051 63.8995 30.0908C63.4281 30.1765 62.9139 29.9194 62.6997 29.4481C62.5711 29.191 62.3569 29.0195 62.0997 28.9767C61.8426 28.9338 61.5427 29.0195 61.3713 29.1909C61.3284 29.2338 60.6428 29.8337 59.7858 29.6623C59.2287 29.5338 58.8859 29.1481 58.7574 29.0195C58.5431 28.7196 58.1146 28.591 57.7718 28.7196C57.429 28.8481 57.1719 29.1909 57.2147 29.5766C57.2147 29.5766 57.2576 30.5193 56.572 30.9478C56.1863 31.2049 55.715 31.1621 55.5436 31.1192C55.2436 31.0764 54.9436 31.1621 54.7722 31.4192C54.558 31.6335 54.5151 31.9763 54.6008 32.2334C54.6437 32.4048 54.8151 33.0475 54.5151 33.6903C54.3866 33.9903 54.1723 34.2045 53.9581 34.3331C53.4867 34.1617 52.9296 34.2045 52.5011 34.5045C52.244 34.6759 52.0298 34.933 51.8584 35.3186C51.7727 35.5757 51.687 35.8757 51.687 36.3042V36.3471C51.687 36.6899 51.7298 37.1184 51.8584 37.6326C52.1583 38.8753 52.7582 39.3038 53.1439 39.5609C53.1867 39.5609 53.1868 39.6037 53.2296 39.6037C53.4867 41.1035 53.9152 42.4747 54.558 43.6746C54.4294 43.7603 54.258 43.8031 54.0866 43.8031C53.5724 43.8031 53.101 43.4603 52.9296 42.9461C52.8011 42.6462 52.544 42.4319 52.244 42.389C52.2012 42.389 52.1155 42.3891 52.0726 42.3462C51.8584 42.3034 51.6013 42.0891 51.6013 42.0891C51.2585 41.7891 50.7871 41.7463 50.4443 41.9605C50.1872 42.1319 50.0158 42.4748 50.0586 42.7747C50.1015 42.989 50.23 43.1175 50.3157 43.2889C50.4871 43.5032 50.6585 43.5889 50.8728 43.7174C51.0871 43.846 51.3013 43.9317 51.5156 44.0174C52.0298 44.9173 52.9725 45.5172 54.0866 45.56C54.558 45.56 55.0293 45.4315 55.4578 45.1744C57.0433 47.3169 59.2716 48.6024 61.6712 48.6024C64.1137 48.6024 66.342 47.2741 67.9275 45.0887C68.356 45.3458 68.8702 45.5172 69.4273 45.5172C70.1986 45.5172 70.927 45.1744 71.4841 44.6173C71.527 44.5744 71.6127 44.4887 71.6555 44.4459C71.7841 44.3173 71.8698 44.1459 71.9555 43.9745C73.1553 43.5889 74.0123 42.4747 74.0123 41.1464C74.0123 41.0607 74.0123 40.9321 74.0123 40.8464C75.0407 40.3751 75.7692 39.3466 75.7692 38.1468C75.7692 37.6754 75.6407 37.2041 75.4264 36.7756C76.3263 36.2614 76.8405 35.3615 76.8405 34.3331ZM61.7569 46.8884C60.2572 46.8884 58.8431 46.2028 57.6861 45.0458C57.3004 44.6601 56.9148 44.1888 56.6148 43.7174L56.3149 43.2461C55.6721 42.1319 55.2007 40.8036 54.9865 39.3466C54.9865 39.3038 54.9865 39.2609 54.9865 39.2181C54.8579 38.6182 54.4723 38.3182 54.2152 38.1468C54.0438 38.0182 53.8724 37.9326 53.7867 37.6326C53.7438 37.5469 53.701 37.4183 53.6581 37.2469C53.4867 36.5613 53.5296 36.1757 53.5724 36.0471C53.7438 36.1757 54.0009 36.1757 54.2152 36.1328C54.3866 36.1328 54.558 36.1328 54.6865 36.0471C55.115 35.79 55.7578 35.3186 56.1435 34.5045C56.4434 33.9046 56.5291 33.3046 56.5291 32.8333C56.8719 32.7476 57.2576 32.619 57.6432 32.4048C58.1575 32.062 58.5003 31.5906 58.7145 31.1192C58.9716 31.2478 59.2287 31.3335 59.5287 31.4192C60.4714 31.6335 61.2856 31.3763 61.8426 31.0764C62.4854 31.7192 63.4281 32.0191 64.328 31.8477C64.7994 31.762 65.185 31.5477 65.5278 31.2906C65.7849 31.6763 66.1706 32.0191 66.6848 32.2762C67.0276 32.4476 67.3276 32.5333 67.6704 32.619C67.5418 33.3046 67.5418 34.1617 68.0132 34.9758C68.2703 35.4043 68.5702 35.7471 68.9988 36.0471C69.1702 36.1757 69.3416 36.2185 69.513 36.2185C69.5987 36.2185 69.6415 36.2185 69.7272 36.1757C69.8558 36.1757 70.0272 36.1328 70.1557 36.09C70.1986 36.2185 70.2414 36.6042 70.07 37.2898C69.9415 37.8897 69.7272 38.0182 69.4701 38.1897C69.2559 38.3182 68.9559 38.5325 68.7845 38.961C68.6988 39.0467 68.656 39.1752 68.656 39.3038C68.356 41.2321 67.6704 42.9033 66.6848 44.1888C66.5991 44.2745 66.5563 44.3602 66.4706 44.4459C65.1422 45.9885 63.5138 46.8884 61.7569 46.8884Z" fill="#263357"/>
<path d="M25.2908 20.0636H27.9047C28.3761 20.0636 28.8046 20.3636 28.8046 20.7492V23.4917C28.8046 23.9631 29.1903 24.3487 29.6616 24.3487C30.133 24.3487 30.5186 23.9631 30.5186 23.4917V20.7492C30.5186 19.4209 29.3617 18.3496 27.9047 18.3496H25.2908C24.8195 18.3496 24.5195 18.0925 24.4338 17.8782C24.3481 17.7068 24.3909 17.4926 24.5195 17.3212L38.1032 6.13706C38.7889 5.62285 39.1317 5.62285 39.8173 6.13706L53.401 17.3212C53.5296 17.4926 53.5724 17.664 53.4867 17.8782C53.401 18.0925 53.1011 18.3496 52.6297 18.3496H49.4159C47.959 18.3496 46.802 19.4209 46.802 20.7492V23.4917C46.802 23.9631 47.1877 24.3487 47.659 24.3487C48.1304 24.3487 48.516 23.9631 48.516 23.4917V20.7492C48.516 20.3636 48.9445 20.0636 49.4159 20.0636H52.6297C53.701 20.0636 54.6437 19.4637 55.0722 18.5638C55.4579 17.7497 55.2865 16.8069 54.6866 16.1213C54.6437 16.0785 54.6437 16.0785 54.6009 16.0356L40.9314 4.76583C39.603 3.7374 38.3604 3.73741 37.0748 4.80868L23.4482 16.0356C23.4054 16.0785 23.3625 16.0785 23.3625 16.1213C22.7626 16.8069 22.5912 17.7497 22.9769 18.5638C23.2768 19.4637 24.2195 20.0636 25.2908 20.0636Z" fill="#263357"/>
<path d="M27.5191 44.5744C26.9192 43.7602 26.4478 42.8604 26.105 41.9177C25.9336 41.4892 25.8479 41.0606 25.7193 40.6321C25.5908 39.9894 25.5051 39.3466 25.5051 38.7038V38.661C25.5051 38.6181 25.5479 38.6181 25.5479 38.5753C26.3621 36.7755 26.7049 34.8472 26.6192 33.0047C26.5764 32.4904 26.5335 31.5049 26.1478 30.305C25.9336 29.6623 25.2908 27.734 23.4054 26.2771C21.6485 24.863 19.6345 24.563 18.3061 24.563C17.7919 24.563 17.3205 24.6059 16.8492 24.6916C14.9209 24.9915 13.5068 25.8914 12.5641 26.7056C11.7071 26.7484 10.8929 26.9198 10.1644 27.3055C8.75036 27.9911 7.67907 29.1909 6.99346 30.8621C6.00789 33.3046 6.6078 36.347 8.53609 38.8324C8.49324 39.4323 8.45039 40.0751 8.32184 40.675C8.23614 41.1035 8.10759 41.532 7.97904 41.9605C7.63623 42.9032 7.16486 43.8031 6.56495 44.6173C6.43639 44.8315 6.3507 45.0886 6.4364 45.3029C6.47925 45.56 6.65065 45.7314 6.86491 45.8599C8.40754 46.717 10.1216 47.1455 11.7928 47.1455C12.0499 47.1455 12.2641 47.1455 12.5212 47.1026C12.9498 47.0598 13.3354 47.0169 13.7639 46.9312C14.7923 47.4883 15.9065 47.7882 17.0634 47.7882C18.2204 47.7882 19.3345 47.4883 20.363 46.9312C20.7486 47.0169 21.1771 47.0598 21.6056 47.1026C21.8627 47.1026 22.077 47.1455 22.3341 47.1455C24.4338 47.1455 26.1478 46.4599 27.262 45.8599C27.4762 45.7314 27.6476 45.5171 27.6905 45.3029C27.7333 45.0029 27.6905 44.7458 27.5191 44.5744ZM8.6218 31.462C9.13601 30.1765 9.90733 29.3195 10.9358 28.8053C11.5357 28.5053 12.1784 28.3768 12.864 28.3768H12.9498C13.164 28.3768 13.3783 28.2911 13.5497 28.1625C14.2781 27.5197 15.5208 26.6627 17.192 26.3628C17.5777 26.3199 17.9633 26.2771 18.349 26.2771C19.4202 26.2771 21.0057 26.4913 22.4198 27.6054C23.9196 28.7624 24.4338 30.3479 24.6052 30.8621C24.9052 31.8048 24.948 32.619 24.9909 33.0904C25.0337 34.0331 24.9052 35.0186 24.6909 36.0042L22.8912 34.2045C22.5484 33.8617 22.0342 33.8617 21.6913 34.2045C21.3485 34.5473 21.3485 35.1044 21.6913 35.4043L23.2768 36.9898C21.5628 36.5184 19.9345 35.79 18.4775 34.8044C16.9349 33.7331 15.5637 32.4047 14.4924 30.8192C14.4495 30.7335 14.4067 30.6907 14.321 30.6478C14.2781 30.5193 14.2353 30.4336 14.1496 30.305C14.0639 30.0479 13.9782 29.748 13.9353 29.448C13.8496 28.9767 13.4211 28.6767 12.9498 28.7196C12.4784 28.8053 12.1784 29.2338 12.2213 29.7051C12.2641 30.1336 12.3927 30.5193 12.5212 30.905C12.5641 30.9907 12.6069 31.0764 12.6498 31.2049C11.9213 31.8905 11.2786 32.6618 10.7215 33.5189C10.0787 34.5044 9.52166 35.5329 9.13601 36.6041C8.19328 34.8044 8.02189 32.9618 8.6218 31.462ZM8.53609 44.703C8.9646 43.9745 9.30741 43.246 9.60737 42.4747C9.60737 42.4319 9.65022 42.3462 9.65022 42.3033C10.2073 43.5031 10.9357 44.5316 11.7499 45.3457C10.6786 45.3457 9.56452 45.1315 8.53609 44.703ZM17.0634 46.0313C14.3638 46.0313 11.9642 43.846 10.8072 40.6321C10.5929 39.9894 10.4215 39.3466 10.293 38.6181C10.6358 37.0755 11.2357 35.6614 12.1356 34.3759C12.5641 33.7331 13.0783 33.0904 13.6354 32.5333C14.7066 33.9474 15.9922 35.1472 17.4491 36.1328C17.7919 36.3899 18.1776 36.6041 18.5204 36.8184L18.4775 36.8612C18.1347 37.1612 18.0919 37.7183 18.3918 38.0611C18.6918 38.4039 19.2488 38.4467 19.5917 38.1468C19.6345 38.1039 19.7202 38.0182 19.8916 38.0182C20.1059 38.0182 20.1916 38.1039 20.2344 38.1468C20.4058 38.2753 20.5772 38.361 20.7915 38.361C21.0057 38.361 21.1771 38.2753 21.3485 38.1468C22.1198 38.4467 22.8912 38.661 23.7053 38.8324C23.5768 39.4323 23.4482 40.0322 23.234 40.5893C22.1627 43.846 19.763 46.0313 17.0634 46.0313ZM22.377 45.3886C23.1911 44.5316 23.9196 43.5031 24.4767 42.3462C24.4767 42.389 24.5195 42.4319 24.5195 42.5176C24.7766 43.2889 25.1623 44.0602 25.5908 44.7458C24.7338 45.0886 23.6196 45.3457 22.377 45.3886Z" fill="#263357"/>
<path d="M21.6484 34.1616C21.3056 34.5044 21.3056 35.0614 21.6484 35.3614L23.2339 36.9469C21.5199 36.4755 19.8916 35.747 18.4346 34.7615C16.892 33.6902 15.5208 32.3618 14.4495 30.7763C14.4066 30.6906 14.3638 30.6478 14.2781 30.6049C14.2352 30.4764 14.1924 30.3907 14.1067 30.2621C14.021 30.005 13.9353 29.7051 13.8924 29.4051C13.8067 28.9337 13.3782 28.6338 12.9069 28.6766C12.4355 28.7623 12.1355 29.1908 12.1784 29.6622C12.2212 30.0907 12.3498 30.4764 12.4783 30.862C12.5212 30.9477 12.564 31.0334 12.6069 31.162C11.8784 31.8476 11.2357 32.6189 10.6786 33.4759C10.0358 34.4615 9.47878 35.4899 9.09312 36.5612C8.19325 34.8472 7.97899 33.0046 8.5789 31.4619C9.09311 30.1764 9.86443 29.3194 10.8929 28.8052C11.4928 28.5052 12.1355 28.3767 12.8211 28.3767H12.9069C13.1211 28.3767 13.3354 28.291 13.5068 28.1624C14.2352 27.5197 15.4779 26.6626 17.1491 26.3627C17.5348 26.3198 17.9204 26.277 18.3061 26.277C19.3774 26.277 20.9628 26.4912 22.3769 27.6053C23.8767 28.7623 24.3909 30.3478 24.5623 30.862C24.8623 31.8047 24.9051 32.6189 24.948 33.0903C24.9908 34.033 24.8623 35.0186 24.648 36.0041L22.8483 34.2044C22.5055 33.8188 21.9484 33.8187 21.6484 34.1616Z" fill="#90CEF1"/>
<path d="M18.5204 42.4317C17.5348 43.203 16.5492 43.203 15.5208 42.4317C15.1351 42.1317 14.6209 42.2174 14.321 42.6031C14.021 42.9887 14.1067 43.5029 14.4924 43.8029C15.2637 44.4028 16.1636 44.7028 17.0206 44.7028C17.8776 44.7028 18.7775 44.4028 19.5488 43.8029C19.9345 43.5029 20.0202 42.9887 19.7202 42.6031C19.4631 42.2174 18.906 42.1317 18.5204 42.4317Z" fill="#263357"/>
<path d="M17.9633 62.1005C17.6204 62.1005 17.3205 62.1433 16.9777 62.1433C14.4923 62.1433 12.007 61.672 9.69302 60.7721V56.7441C9.69302 56.2727 9.30737 55.8871 8.83601 55.8871C8.36464 55.8871 7.97899 56.2727 7.97899 56.7441V60.0008C6.82201 59.4009 5.70788 58.7152 4.67946 57.9011C5.06511 54.6873 7.29337 51.0449 11.4071 49.8451C11.7499 53.2303 15.4779 55.8442 16.9777 55.8442C18.0061 55.8442 19.7201 54.773 20.92 53.4017C21.6484 52.5447 22.4626 51.302 22.5483 49.8022C23.4053 50.0594 24.5623 50.6164 25.7193 51.5591C25.9764 51.7734 26.3621 51.7734 26.662 51.602C26.662 51.602 26.7049 51.602 26.7049 51.5591C27.1762 51.2592 27.2619 50.5736 26.8334 50.2308C24.9908 48.6881 22.9768 47.9168 21.777 47.9168H21.6913C21.4342 47.9168 21.2199 48.0454 21.0485 48.2168C20.8771 48.3882 20.8343 48.6453 20.8771 48.9024C21.0914 50.2308 20.3629 51.4306 19.763 52.1591C18.7346 53.4446 17.3634 54.1302 17.0205 54.1302C16.3778 54.0873 13.164 52.0734 13.164 49.3737C13.164 49.2023 13.1639 49.0738 13.2068 48.9024C13.2496 48.6453 13.164 48.3453 12.9497 48.1739C12.7354 47.9596 12.4783 47.9168 12.1784 47.9596C7.16481 48.8595 3.35108 53.1018 3.00827 58.2439C2.96542 58.5438 3.09398 58.8009 3.30823 58.9724C4.89372 60.2579 6.6506 61.3292 8.49319 62.1005C8.53604 62.1433 8.62175 62.1433 8.6646 62.1862C11.3214 63.3003 14.1495 63.8574 17.0205 63.8574C17.3634 63.8574 17.749 63.8574 18.0918 63.8145C18.4775 63.8145 18.8203 63.5146 18.906 63.086C18.906 62.5718 18.4775 62.1005 17.9633 62.1005Z" fill="#263357"/>
<path d="M14.7066 38.1897C14.878 38.3182 15.0494 38.4039 15.2637 38.4039C15.5208 38.4039 15.735 38.3182 15.9064 38.104C16.2064 37.7612 16.1635 37.2041 15.8207 36.9042C15.6493 36.7328 15.0922 36.3471 14.3209 36.3471C13.6353 36.3471 13.1211 36.6899 12.9069 36.9042C12.564 37.2041 12.5212 37.7612 12.8211 38.104C13.1211 38.4468 13.6782 38.4896 14.021 38.1897C14.0638 38.1468 14.1924 38.0611 14.3209 38.0611C14.578 38.0611 14.7066 38.1468 14.7066 38.1897Z" fill="#263357"/>
<path d="M4.20807 36.1756C4.25092 36.1756 4.33663 36.1756 4.37948 36.1756C4.85084 36.0899 5.15079 35.6185 5.06509 35.1471C4.72228 33.3902 4.85083 31.6762 5.4936 30.1336C6.52202 27.5197 8.27892 26.277 9.5216 25.6771C9.95011 25.4628 10.1215 24.9486 9.90725 24.5201C9.693 24.0916 9.17878 23.9202 8.75027 24.1344C7.20764 24.8629 5.10794 26.4055 3.86526 29.4908C3.1368 31.3334 2.96539 33.3903 3.35105 35.49C3.43675 35.9185 3.77956 36.1756 4.20807 36.1756Z" fill="#263357"/>
<path d="M54.8151 70.0278C49.9729 73.0274 44.3595 74.6129 38.6174 74.6129C32.4897 74.6129 26.5335 72.8131 21.477 69.3851C21.0914 69.128 20.5343 69.2137 20.2772 69.5993C20.0201 69.985 20.1058 70.542 20.4915 70.7992C25.8478 74.3986 32.1041 76.3269 38.5746 76.3269C44.6166 76.3269 50.53 74.6557 55.6721 71.4848C56.0578 71.2277 56.1863 70.7134 55.9292 70.2849C55.7578 69.8993 55.2008 69.7707 54.8151 70.0278Z" fill="#263357"/>
<path d="M20.2772 65.1427C22.4626 67.0282 24.948 68.5708 27.6048 69.7278C27.6476 69.7706 27.7333 69.7706 27.7762 69.8135C31.2471 71.2704 35.018 72.0417 38.8746 72.0417H38.9174H39.046H39.0888C43.1168 71.9989 47.0591 71.099 50.6586 69.4707C50.7014 69.4707 50.7443 69.4278 50.83 69.385C53.2725 68.2708 55.5436 66.7711 57.6004 64.9713C57.8147 64.7999 57.9004 64.5428 57.9004 64.2429C57.3862 57.5153 52.3726 51.9875 45.7736 50.8305H45.7307C45.645 50.8305 45.6022 50.7877 45.5165 50.7877C45.4736 50.7877 45.4736 50.7877 45.4308 50.7877C45.3879 50.7877 45.3879 50.7877 45.3451 50.7877H45.3022C45.1308 50.7877 44.9165 50.8734 44.788 51.0019C43.1168 52.5017 41.1885 53.2302 39.0888 53.2302C36.8606 53.2302 34.6752 52.416 33.0897 51.0019C32.9183 50.8305 32.6612 50.7448 32.4041 50.7877C32.3612 50.7877 32.3184 50.7877 32.2755 50.8305H32.1898C25.4622 52.0303 20.4915 57.601 20.0201 64.4143V64.4571C20.0201 64.5 20.0201 64.5428 20.0201 64.5857C20.0201 64.6285 20.0201 64.6285 20.0201 64.6714C20.0201 64.7142 20.0201 64.7571 20.063 64.7999C20.063 64.7999 20.063 64.8428 20.1058 64.8428C20.1058 64.8856 20.1487 64.9285 20.1487 64.9713C20.1487 64.9713 20.1487 65.0142 20.1915 65.0142C20.1915 65.057 20.2344 65.0999 20.2772 65.1427ZM44.5737 53.3587L44.3595 55.9298L41.7884 54.6014C42.7311 54.3443 43.6739 53.9158 44.5737 53.3587ZM39.903 55.6298L44.6594 58.0723C44.788 58.1152 44.9166 58.158 45.0451 58.158C45.1737 58.158 45.3451 58.1152 45.4736 58.0723C45.7307 57.9438 45.9021 57.6867 45.9021 57.3867L46.3306 52.7588C51.6013 54.0872 55.5436 58.5437 56.1435 63.9858C54.6437 65.2713 53.0154 66.3854 51.2585 67.2853V62.6145C51.2585 62.1432 50.8728 61.7575 50.4015 61.7575C49.9301 61.7575 49.5445 62.1432 49.5445 62.6145V68.0994C46.502 69.4278 43.2454 70.1563 39.903 70.2848V55.6298ZM36.2178 54.6014L33.6039 55.9298L33.3896 53.4016C34.2467 53.9586 35.2322 54.3443 36.2178 54.6014ZM31.6327 52.7588L32.0613 57.3867C32.1041 57.6867 32.2327 57.9438 32.4898 58.0723C32.6183 58.158 32.7469 58.158 32.9183 58.158C33.0468 58.158 33.1754 58.1152 33.3039 58.0723L38.2318 55.5441V70.3277C38.1461 70.3277 38.0175 70.3277 37.9318 70.3277C37.7604 70.3277 37.589 70.3277 37.4176 70.2848C37.2034 70.2848 36.9891 70.242 36.7749 70.242C36.6035 70.242 36.4321 70.1991 36.2607 70.1991C36.0464 70.1991 35.8321 70.1563 35.6179 70.1134C35.4465 70.1134 35.2751 70.0706 35.1037 70.0277C34.8894 69.9849 34.6752 69.942 34.4609 69.942C34.2895 69.8992 34.1181 69.8992 33.9467 69.8563C33.7325 69.8135 33.5182 69.7706 33.3039 69.7278C33.1325 69.6849 32.9611 69.6421 32.7897 69.5992C32.5755 69.5564 32.3612 69.5135 32.147 69.4278C31.9756 69.385 31.847 69.3421 31.6756 69.2993C31.4613 69.2564 31.2471 69.1707 31.0328 69.085C30.9043 69.0422 30.7329 68.9993 30.6043 68.9565C30.3901 68.8708 30.133 68.7851 29.9187 68.6994C29.7902 68.6565 29.6616 68.6137 29.533 68.5708C29.3188 68.4851 29.1474 68.3994 28.9331 68.3137V62.6145C28.9331 62.1432 28.5475 61.7575 28.0761 61.7575C27.6048 61.7575 27.2191 62.1432 27.2191 62.6145V67.6281C26.9191 67.4995 26.662 67.371 26.4049 67.1996C26.2764 67.1567 26.1907 67.071 26.0621 67.0282C25.8479 66.8996 25.6336 66.7711 25.4194 66.6425C25.2908 66.5568 25.1622 66.4711 25.0337 66.3854C24.8194 66.2568 24.648 66.1283 24.4338 65.9997C24.3052 65.914 24.1767 65.8283 24.0481 65.7426C23.8767 65.6141 23.6625 65.4855 23.4911 65.357C23.3625 65.2713 23.234 65.1427 23.0625 65.057C22.8911 64.9285 22.7197 64.7999 22.5483 64.6714C22.4198 64.5857 22.2912 64.4571 22.1627 64.3286C22.0341 64.2429 21.9484 64.1572 21.8199 64.0715C22.2912 58.5865 26.2764 54.0443 31.6327 52.7588Z" fill="#263357"/>
</svg>
