<svg width="24" height="24" viewBox="0 0 24 24" fill="none" xmlns="http://www.w3.org/2000/svg">
<path d="M11.9148 6.60927C8.93381 6.60927 6.52932 9.01396 6.52932 11.9952C6.52932 14.9765 8.93381 17.3811 11.9148 17.3811C14.8958 17.3811 17.3003 14.9765 17.3003 11.9952C17.3003 9.01396 14.8958 6.60927 11.9148 6.60927ZM11.9148 15.4968C9.98841 15.4968 8.41354 13.9265 8.41354 11.9952C8.41354 10.064 9.98372 8.49365 11.9148 8.49365C13.8459 8.49365 15.4161 10.064 15.4161 11.9952C15.4161 13.9265 13.8412 15.4968 11.9148 15.4968ZM18.7768 6.38896C18.7768 7.0874 18.2143 7.64521 17.5206 7.64521C16.8222 7.64521 16.2645 7.08271 16.2645 6.38896C16.2645 5.69521 16.8269 5.13271 17.5206 5.13271C18.2143 5.13271 18.7768 5.69521 18.7768 6.38896ZM22.3437 7.66396C22.264 5.98115 21.8796 4.49053 20.6469 3.2624C19.4189 2.03428 17.9284 1.6499 16.2457 1.56553C14.5115 1.46709 9.31347 1.46709 7.57923 1.56553C5.90124 1.64521 4.41074 2.02959 3.17803 3.25771C1.94532 4.48584 1.56566 5.97646 1.48129 7.65927C1.38286 9.39365 1.38286 14.5921 1.48129 16.3265C1.56097 18.0093 1.94532 19.4999 3.17803 20.728C4.41074 21.9561 5.89656 22.3405 7.57923 22.4249C9.31347 22.5233 14.5115 22.5233 16.2457 22.4249C17.9284 22.3452 19.4189 21.9608 20.6469 20.728C21.8749 19.4999 22.2593 18.0093 22.3437 16.3265C22.4421 14.5921 22.4421 9.39834 22.3437 7.66396ZM20.1032 18.1874C19.7376 19.1061 19.0299 19.814 18.1065 20.1843C16.7238 20.7327 13.4428 20.6061 11.9148 20.6061C10.3868 20.6061 7.10115 20.728 5.72313 20.1843C4.80446 19.8186 4.0967 19.1108 3.72642 18.1874C3.17803 16.8046 3.30458 13.5233 3.30458 11.9952C3.30458 10.4671 3.18272 7.18115 3.72642 5.80303C4.09202 4.88428 4.79977 4.17646 5.72313 3.80615C7.10583 3.25771 10.3868 3.38428 11.9148 3.38428C13.4428 3.38428 16.7285 3.2624 18.1065 3.80615C19.0252 4.17178 19.7329 4.87959 20.1032 5.80303C20.6516 7.18584 20.525 10.4671 20.525 11.9952C20.525 13.5233 20.6516 16.8093 20.1032 18.1874Z" fill="white"/>
</svg>
