<svg width="24" height="24" viewBox="0 0 24 24" fill="none" xmlns="http://www.w3.org/2000/svg">
<path d="M21.4286 1H2.56652C1.70223 1 1 1.67969 1 2.51406V20.4859C1 21.3203 1.70223 22 2.56652 22H21.4286C22.2929 22 23 21.3203 23 20.4859V2.51406C23 1.67969 22.2929 1 21.4286 1ZM7.64911 19H4.38839V8.97813H7.65402V19H7.64911ZM6.01875 7.60938C4.97277 7.60938 4.12812 6.79844 4.12812 5.80469C4.12812 4.81094 4.97277 4 6.01875 4C7.05982 4 7.90937 4.81094 7.90937 5.80469C7.90937 6.80313 7.06473 7.60938 6.01875 7.60938ZM19.8719 19H16.6112V14.125C16.6112 12.9625 16.5866 11.4672 14.917 11.4672C13.2179 11.4672 12.9576 12.7328 12.9576 14.0406V19H9.69688V8.97813H12.825V10.3469H12.8692C13.3062 9.55938 14.3719 8.72969 15.958 8.72969C19.258 8.72969 19.8719 10.8063 19.8719 13.5063V19Z" fill="white"/>
</svg>
